<mxfile host="app.diagrams.net" modified="2022-06-13T19:55:22.497Z" agent="5.0 (Windows NT 10.0; Win64; x64) AppleWebKit/537.36 (KHTML, like Gecko) Chrome/102.0.5005.63 Safari/537.36" etag="3fonrCDf0xPN-3n8_eh3" version="19.0.0" type="github" pages="5">
  <diagram id="ueC9EN3mQK6EyC93AZKU" name="FileName">
    <mxGraphModel dx="960" dy="515" grid="1" gridSize="10" guides="1" tooltips="1" connect="1" arrows="1" fold="1" page="1" pageScale="1" pageWidth="827" pageHeight="1169" math="0" shadow="0">
      <root>
        <mxCell id="0" />
        <mxCell id="1" parent="0" />
        <mxCell id="Al5vsp99LIilWwOlyKnx-2" value="&lt;span style=&quot;text-align: left;&quot;&gt;A Lenex file&lt;/span&gt;" style="rounded=0;whiteSpace=wrap;html=1;" parent="1" vertex="1">
          <mxGeometry x="30" y="20" width="120" height="100" as="geometry" />
        </mxCell>
        <mxCell id="Al5vsp99LIilWwOlyKnx-3" value="&lt;span style=&quot;text-align: left;&quot;&gt;A XML file&lt;/span&gt;" style="rounded=0;whiteSpace=wrap;html=1;" parent="1" vertex="1">
          <mxGeometry x="180" y="20" width="120" height="40" as="geometry" />
        </mxCell>
        <mxCell id="Al5vsp99LIilWwOlyKnx-5" value="&lt;span style=&quot;text-align: left;&quot;&gt;The .lef&amp;nbsp;&lt;/span&gt;&lt;span style=&quot;text-align: left;&quot;&gt;extension&amp;nbsp;&lt;/span&gt;" style="rounded=0;whiteSpace=wrap;html=1;" parent="1" vertex="1">
          <mxGeometry x="310" y="20" width="120" height="40" as="geometry" />
        </mxCell>
        <mxCell id="Al5vsp99LIilWwOlyKnx-6" value="&lt;span style=&quot;text-align: left;&quot;&gt;A Zip&amp;nbsp;file&lt;/span&gt;" style="rounded=0;whiteSpace=wrap;html=1;" parent="1" vertex="1">
          <mxGeometry x="180" y="80" width="120" height="40" as="geometry" />
        </mxCell>
        <mxCell id="Al5vsp99LIilWwOlyKnx-7" value="&lt;span style=&quot;text-align: left;&quot;&gt;The .lxf&amp;nbsp;&lt;/span&gt;&lt;span style=&quot;text-align: left;&quot;&gt;extension&amp;nbsp;&lt;/span&gt;" style="rounded=0;whiteSpace=wrap;html=1;" parent="1" vertex="1">
          <mxGeometry x="310" y="80" width="120" height="40" as="geometry" />
        </mxCell>
        <mxCell id="Al5vsp99LIilWwOlyKnx-8" value="" style="endArrow=none;html=1;rounded=0;" parent="1" edge="1">
          <mxGeometry width="50" height="50" relative="1" as="geometry">
            <mxPoint x="180" y="70" as="sourcePoint" />
            <mxPoint x="430" y="70" as="targetPoint" />
          </mxGeometry>
        </mxCell>
        <mxCell id="Al5vsp99LIilWwOlyKnx-9" value="" style="shape=flexArrow;endArrow=classic;html=1;rounded=0;endWidth=28;endSize=9.6;width=46;fillColor=#f5f5f5;strokeColor=#666666;" parent="1" edge="1">
          <mxGeometry width="50" height="50" relative="1" as="geometry">
            <mxPoint x="480" y="45" as="sourcePoint" />
            <mxPoint x="480" y="95" as="targetPoint" />
            <Array as="points">
              <mxPoint x="480" y="65" />
            </Array>
          </mxGeometry>
        </mxCell>
      </root>
    </mxGraphModel>
  </diagram>
  <diagram id="cgplhgDl9NAEX-10BulV" name="Lenex file">
    <mxGraphModel dx="960" dy="515" grid="1" gridSize="10" guides="1" tooltips="1" connect="1" arrows="1" fold="1" page="1" pageScale="1" pageWidth="827" pageHeight="1169" math="0" shadow="0">
      <root>
        <mxCell id="0" />
        <mxCell id="1" parent="0" />
        <mxCell id="kdp4y26nWVqPTdRKS5SH-3" value="&lt;span style=&quot;text-align: left;&quot;&gt;Invitation&lt;/span&gt;" style="rounded=0;whiteSpace=wrap;html=1;" parent="1" vertex="1">
          <mxGeometry x="20" y="20" width="120" height="60" as="geometry" />
        </mxCell>
        <mxCell id="kdp4y26nWVqPTdRKS5SH-4" value="&lt;span style=&quot;text-align: left;&quot;&gt;Entries&lt;/span&gt;" style="rounded=0;whiteSpace=wrap;html=1;" parent="1" vertex="1">
          <mxGeometry x="20" y="100" width="120" height="60" as="geometry" />
        </mxCell>
        <mxCell id="kdp4y26nWVqPTdRKS5SH-5" value="&lt;span style=&quot;&quot;&gt;An entry file contains the entries for one meet.&lt;br&gt;One file might contain the entries of one club only,&amp;nbsp;&lt;/span&gt;&lt;span style=&quot;&quot;&gt;or it can contain all entries of all clubs.&lt;/span&gt;" style="rounded=0;whiteSpace=wrap;html=1;dashed=1;dashPattern=1 1;align=left;" parent="1" vertex="1">
          <mxGeometry x="160" y="100" width="570" height="60" as="geometry" />
        </mxCell>
        <mxCell id="kdp4y26nWVqPTdRKS5SH-6" value="&lt;span style=&quot;&quot;&gt;An invitation file contains general information, the schedule and the event structure of one&amp;nbsp;&lt;/span&gt;&lt;span style=&quot;&quot;&gt;meet.&lt;br&gt;Additionally, it could be necessary or helpful to add time standards and/or qualification times, which&amp;nbsp;&lt;/span&gt;&lt;span style=&quot;&quot;&gt;are important for the meet.&lt;/span&gt;" style="rounded=0;whiteSpace=wrap;html=1;dashed=1;dashPattern=1 1;align=left;" parent="1" vertex="1">
          <mxGeometry x="160" y="20" width="570" height="60" as="geometry" />
        </mxCell>
        <mxCell id="kdp4y26nWVqPTdRKS5SH-8" value="&lt;span style=&quot;text-align: left;&quot;&gt;Results&lt;/span&gt;" style="rounded=0;whiteSpace=wrap;html=1;" parent="1" vertex="1">
          <mxGeometry x="20" y="180" width="120" height="60" as="geometry" />
        </mxCell>
        <mxCell id="kdp4y26nWVqPTdRKS5SH-9" value="A result file contains the results of one meet.&lt;br&gt;Normally, it contains all results of all clubs, but it is&amp;nbsp;possible to split the results for each club into a separate file." style="rounded=0;whiteSpace=wrap;html=1;dashed=1;dashPattern=1 1;align=left;" parent="1" vertex="1">
          <mxGeometry x="160" y="180" width="570" height="60" as="geometry" />
        </mxCell>
        <mxCell id="kdp4y26nWVqPTdRKS5SH-10" value="&lt;span style=&quot;text-align: left;&quot;&gt;Records&lt;/span&gt;" style="rounded=0;whiteSpace=wrap;html=1;" parent="1" vertex="1">
          <mxGeometry x="20" y="260" width="120" height="60" as="geometry" />
        </mxCell>
        <mxCell id="kdp4y26nWVqPTdRKS5SH-11" value="A record file contains one or more list(s) of records." style="rounded=0;whiteSpace=wrap;html=1;dashed=1;dashPattern=1 1;align=left;" parent="1" vertex="1">
          <mxGeometry x="160" y="260" width="570" height="60" as="geometry" />
        </mxCell>
        <mxCell id="kdp4y26nWVqPTdRKS5SH-12" value="&lt;span style=&quot;text-align: left;&quot;&gt;Time standards&lt;/span&gt;" style="rounded=0;whiteSpace=wrap;html=1;" parent="1" vertex="1">
          <mxGeometry x="20" y="340" width="120" height="60" as="geometry" />
        </mxCell>
        <mxCell id="kdp4y26nWVqPTdRKS5SH-13" value="A time standards file may contain different kinds of time standards and/or qualification&amp;nbsp;times.&lt;br&gt;It might make sense to store time standards in separate files, if they are independent of meets (e.g.&lt;br&gt;Olympic A and B time standards).&lt;br&gt;If the time standards are bound to a certain meet, they should be&amp;nbsp;included in the invitation file of that meet." style="rounded=0;whiteSpace=wrap;html=1;dashed=1;dashPattern=1 1;align=left;" parent="1" vertex="1">
          <mxGeometry x="160" y="340" width="570" height="60" as="geometry" />
        </mxCell>
      </root>
    </mxGraphModel>
  </diagram>
  <diagram id="cRWhHFy4op6nNqENUQwg" name="Lenex Tree">
    <mxGraphModel dx="960" dy="515" grid="1" gridSize="10" guides="1" tooltips="1" connect="1" arrows="1" fold="1" page="1" pageScale="1" pageWidth="827" pageHeight="1169" math="0" shadow="0">
      <root>
        <mxCell id="0" />
        <mxCell id="1" parent="0" />
        <mxCell id="YSQmjL1IiymvAM0oykPz-1" value="LENEX" style="rounded=0;whiteSpace=wrap;html=1;" parent="1" vertex="1">
          <mxGeometry x="20" y="80" width="340" height="20" as="geometry" />
        </mxCell>
        <mxCell id="YSQmjL1IiymvAM0oykPz-3" value="&lt;span style=&quot;text-align: left;&quot;&gt;CONSTRUCTOR&lt;/span&gt;" style="rounded=0;whiteSpace=wrap;html=1;" parent="1" vertex="1">
          <mxGeometry x="40" y="100" width="320" height="20" as="geometry" />
        </mxCell>
        <mxCell id="YSQmjL1IiymvAM0oykPz-4" value="&lt;span style=&quot;color: rgb(0, 0, 0); font-family: Helvetica; font-size: 12px; font-style: normal; font-variant-ligatures: normal; font-variant-caps: normal; font-weight: 400; letter-spacing: normal; orphans: 2; text-align: left; text-indent: 0px; text-transform: none; widows: 2; word-spacing: 0px; -webkit-text-stroke-width: 0px; background-color: rgb(248, 249, 250); text-decoration-thickness: initial; text-decoration-style: initial; text-decoration-color: initial; float: none; display: inline !important;&quot;&gt;Information about the creator of the file.&lt;/span&gt;" style="text;whiteSpace=wrap;html=1;" parent="1" vertex="1">
          <mxGeometry x="370" y="100" width="310" height="20" as="geometry" />
        </mxCell>
        <mxCell id="YSQmjL1IiymvAM0oykPz-5" value="The root of a Lenex file" style="text;whiteSpace=wrap;html=1;" parent="1" vertex="1">
          <mxGeometry x="370" y="80" width="310" height="20" as="geometry" />
        </mxCell>
        <mxCell id="YSQmjL1IiymvAM0oykPz-6" value="&lt;span style=&quot;text-align: left;&quot;&gt;MEETS&lt;/span&gt;" style="rounded=0;whiteSpace=wrap;html=1;fillColor=#f5f5f5;fontColor=#333333;strokeColor=#666666;" parent="1" vertex="1">
          <mxGeometry x="40" y="120" width="320" height="20" as="geometry" />
        </mxCell>
        <mxCell id="YSQmjL1IiymvAM0oykPz-7" value="&lt;span style=&quot;text-align: left;&quot;&gt;MEET&lt;/span&gt;" style="rounded=0;whiteSpace=wrap;html=1;" parent="1" vertex="1">
          <mxGeometry x="60" y="140" width="300" height="20" as="geometry" />
        </mxCell>
        <mxCell id="YSQmjL1IiymvAM0oykPz-8" value="&lt;span style=&quot;color: rgb(0, 0, 0); font-family: Helvetica; font-size: 12px; font-style: normal; font-variant-ligatures: normal; font-variant-caps: normal; font-weight: 400; letter-spacing: normal; orphans: 2; text-align: left; text-indent: 0px; text-transform: none; widows: 2; word-spacing: 0px; -webkit-text-stroke-width: 0px; background-color: rgb(248, 249, 250); text-decoration-thickness: initial; text-decoration-style: initial; text-decoration-color: initial; float: none; display: inline !important;&quot;&gt;The root for a meet sub tree.&lt;/span&gt;" style="text;whiteSpace=wrap;html=1;" parent="1" vertex="1">
          <mxGeometry x="370" y="140" width="310" height="20" as="geometry" />
        </mxCell>
        <mxCell id="YSQmjL1IiymvAM0oykPz-9" value="&lt;span style=&quot;text-align: left;&quot;&gt;SESSIONS&lt;/span&gt;" style="rounded=0;whiteSpace=wrap;html=1;" parent="1" vertex="1">
          <mxGeometry x="80" y="160" width="280" height="20" as="geometry" />
        </mxCell>
        <mxCell id="YSQmjL1IiymvAM0oykPz-10" value="&lt;span style=&quot;color: rgb(0, 0, 0); font-family: Helvetica; font-size: 12px; font-style: normal; font-variant-ligatures: normal; font-variant-caps: normal; font-weight: 400; letter-spacing: normal; orphans: 2; text-align: left; text-indent: 0px; text-transform: none; widows: 2; word-spacing: 0px; -webkit-text-stroke-width: 0px; background-color: rgb(248, 249, 250); text-decoration-thickness: initial; text-decoration-style: initial; text-decoration-color: initial; float: none; display: inline !important;&quot;&gt;The schedule and event details of a meet.&lt;/span&gt;" style="text;whiteSpace=wrap;html=1;" parent="1" vertex="1">
          <mxGeometry x="370" y="160" width="310" height="20" as="geometry" />
        </mxCell>
        <mxCell id="YSQmjL1IiymvAM0oykPz-11" value="&lt;span style=&quot;text-align: left;&quot;&gt;CLUBS&lt;/span&gt;" style="rounded=0;whiteSpace=wrap;html=1;" parent="1" vertex="1">
          <mxGeometry x="80" y="180" width="280" height="20" as="geometry" />
        </mxCell>
        <mxCell id="YSQmjL1IiymvAM0oykPz-12" value="&lt;span style=&quot;color: rgb(0, 0, 0); font-family: Helvetica; font-size: 12px; font-style: normal; font-variant-ligatures: normal; font-variant-caps: normal; font-weight: 400; letter-spacing: normal; orphans: 2; text-align: left; text-indent: 0px; text-transform: none; widows: 2; word-spacing: 0px; -webkit-text-stroke-width: 0px; background-color: rgb(248, 249, 250); text-decoration-thickness: initial; text-decoration-style: initial; text-decoration-color: initial; float: none; display: inline !important;&quot;&gt;All data of one club at the meet.&lt;/span&gt;" style="text;whiteSpace=wrap;html=1;" parent="1" vertex="1">
          <mxGeometry x="370" y="180" width="310" height="20" as="geometry" />
        </mxCell>
        <mxCell id="YSQmjL1IiymvAM0oykPz-13" value="&lt;span style=&quot;text-align: left;&quot;&gt;ATHLETES&lt;/span&gt;" style="rounded=0;whiteSpace=wrap;html=1;" parent="1" vertex="1">
          <mxGeometry x="100" y="200" width="260" height="20" as="geometry" />
        </mxCell>
        <mxCell id="YSQmjL1IiymvAM0oykPz-14" value="&lt;span style=&quot;text-align: left;&quot;&gt;RELAYS&lt;/span&gt;" style="rounded=0;whiteSpace=wrap;html=1;" parent="1" vertex="1">
          <mxGeometry x="100" y="220" width="260" height="20" as="geometry" />
        </mxCell>
        <mxCell id="YSQmjL1IiymvAM0oykPz-15" value="&lt;span style=&quot;text-align: left;&quot;&gt;OFFICIALS&lt;/span&gt;" style="rounded=0;whiteSpace=wrap;html=1;" parent="1" vertex="1">
          <mxGeometry x="100" y="240" width="260" height="20" as="geometry" />
        </mxCell>
        <mxCell id="YSQmjL1IiymvAM0oykPz-16" value="&lt;span style=&quot;text-align: left;&quot;&gt;RECORDLISTS&lt;/span&gt;" style="rounded=0;whiteSpace=wrap;html=1;" parent="1" vertex="1">
          <mxGeometry x="40" y="260" width="320" height="20" as="geometry" />
        </mxCell>
        <mxCell id="YSQmjL1IiymvAM0oykPz-17" value="&lt;span style=&quot;color: rgb(0, 0, 0); font-family: Helvetica; font-size: 12px; font-style: normal; font-variant-ligatures: normal; font-variant-caps: normal; font-weight: 400; letter-spacing: normal; orphans: 2; text-align: left; text-indent: 0px; text-transform: none; widows: 2; word-spacing: 0px; -webkit-text-stroke-width: 0px; background-color: rgb(248, 249, 250); text-decoration-thickness: initial; text-decoration-style: initial; text-decoration-color: initial; float: none; display: inline !important;&quot;&gt;The root for the record lists sub tree.&lt;/span&gt;" style="text;whiteSpace=wrap;html=1;" parent="1" vertex="1">
          <mxGeometry x="370" y="260" width="310" height="20" as="geometry" />
        </mxCell>
        <mxCell id="YSQmjL1IiymvAM0oykPz-18" value="&lt;span style=&quot;text-align: left;&quot;&gt;TIMESTANDARDLISTS&lt;/span&gt;" style="rounded=0;whiteSpace=wrap;html=1;" parent="1" vertex="1">
          <mxGeometry x="40" y="280" width="320" height="20" as="geometry" />
        </mxCell>
        <mxCell id="YSQmjL1IiymvAM0oykPz-20" value="&lt;span style=&quot;color: rgb(0, 0, 0); font-family: Helvetica; font-size: 12px; font-style: normal; font-variant-ligatures: normal; font-variant-caps: normal; font-weight: 400; letter-spacing: normal; orphans: 2; text-align: left; text-indent: 0px; text-transform: none; widows: 2; word-spacing: 0px; -webkit-text-stroke-width: 0px; background-color: rgb(248, 249, 250); text-decoration-thickness: initial; text-decoration-style: initial; text-decoration-color: initial; float: none; display: inline !important;&quot;&gt;The root for the time standard lists sub tree.&lt;/span&gt;" style="text;whiteSpace=wrap;html=1;" parent="1" vertex="1">
          <mxGeometry x="370" y="280" width="310" height="20" as="geometry" />
        </mxCell>
        <mxCell id="YSQmjL1IiymvAM0oykPz-22" value="&lt;span style=&quot;&quot;&gt;3.1. Tree overview&lt;/span&gt;" style="rounded=0;whiteSpace=wrap;html=1;fillColor=#fff2cc;strokeColor=#d6b656;align=left;" parent="1" vertex="1">
          <mxGeometry x="20" y="10" width="660" height="30" as="geometry" />
        </mxCell>
        <mxCell id="YSQmjL1IiymvAM0oykPz-23" value="3.2. Sub tree SESSIONS" style="rounded=0;whiteSpace=wrap;html=1;fillColor=#fff2cc;strokeColor=#d6b656;align=left;" parent="1" vertex="1">
          <mxGeometry x="20" y="330" width="660" height="30" as="geometry" />
        </mxCell>
        <mxCell id="YSQmjL1IiymvAM0oykPz-24" value="" style="endArrow=none;html=1;rounded=0;entryX=0;entryY=1;entryDx=0;entryDy=0;exitX=0;exitY=0;exitDx=0;exitDy=0;strokeColor=#999999;" parent="1" source="YSQmjL1IiymvAM0oykPz-16" target="YSQmjL1IiymvAM0oykPz-6" edge="1">
          <mxGeometry width="50" height="50" relative="1" as="geometry">
            <mxPoint x="-30" y="290" as="sourcePoint" />
            <mxPoint x="20" y="240" as="targetPoint" />
          </mxGeometry>
        </mxCell>
        <mxCell id="YSQmjL1IiymvAM0oykPz-25" value="SESSIONS" style="rounded=0;whiteSpace=wrap;html=1;fillColor=#f5f5f5;fontColor=#333333;strokeColor=#666666;" parent="1" vertex="1">
          <mxGeometry x="20" y="410" width="340" height="20" as="geometry" />
        </mxCell>
        <mxCell id="YSQmjL1IiymvAM0oykPz-26" value="SESSION" style="rounded=0;whiteSpace=wrap;html=1;" parent="1" vertex="1">
          <mxGeometry x="40" y="430" width="320" height="20" as="geometry" />
        </mxCell>
        <mxCell id="YSQmjL1IiymvAM0oykPz-28" value="Data of one session with all its events." style="text;whiteSpace=wrap;html=1;" parent="1" vertex="1">
          <mxGeometry x="370" y="410" width="310" height="20" as="geometry" />
        </mxCell>
        <mxCell id="YSQmjL1IiymvAM0oykPz-29" value="POOL" style="rounded=0;whiteSpace=wrap;html=1;" parent="1" vertex="1">
          <mxGeometry x="60" y="450" width="300" height="20" as="geometry" />
        </mxCell>
        <mxCell id="YSQmjL1IiymvAM0oykPz-30" value="EVENTS" style="rounded=0;whiteSpace=wrap;html=1;fillColor=#f5f5f5;fontColor=#333333;strokeColor=#666666;" parent="1" vertex="1">
          <mxGeometry x="60" y="470" width="300" height="20" as="geometry" />
        </mxCell>
        <mxCell id="YSQmjL1IiymvAM0oykPz-32" value="EVENT" style="rounded=0;whiteSpace=wrap;html=1;" parent="1" vertex="1">
          <mxGeometry x="80" y="490" width="280" height="20" as="geometry" />
        </mxCell>
        <mxCell id="YSQmjL1IiymvAM0oykPz-33" value="&lt;span style=&quot;color: rgb(0, 0, 0); font-family: Helvetica; font-size: 12px; font-style: normal; font-variant-ligatures: normal; font-variant-caps: normal; font-weight: 400; letter-spacing: normal; orphans: 2; text-align: left; text-indent: 0px; text-transform: none; widows: 2; word-spacing: 0px; -webkit-text-stroke-width: 0px; background-color: rgb(248, 249, 250); text-decoration-thickness: initial; text-decoration-style: initial; text-decoration-color: initial; float: none; display: inline !important;&quot;&gt;Description of one event/round.&lt;/span&gt;" style="text;whiteSpace=wrap;html=1;" parent="1" vertex="1">
          <mxGeometry x="370" y="490" width="310" height="20" as="geometry" />
        </mxCell>
        <mxCell id="YSQmjL1IiymvAM0oykPz-34" value="AGEGROUPS" style="rounded=0;whiteSpace=wrap;html=1;fillColor=#f5f5f5;fontColor=#333333;strokeColor=#666666;" parent="1" vertex="1">
          <mxGeometry x="100" y="510" width="260" height="20" as="geometry" />
        </mxCell>
        <mxCell id="YSQmjL1IiymvAM0oykPz-36" value="AGEGROUP" style="rounded=0;whiteSpace=wrap;html=1;" parent="1" vertex="1">
          <mxGeometry x="120" y="530" width="240" height="20" as="geometry" />
        </mxCell>
        <mxCell id="YSQmjL1IiymvAM0oykPz-37" value="RANKINGS" style="rounded=0;whiteSpace=wrap;html=1;fillColor=#f5f5f5;fontColor=#333333;strokeColor=#666666;" parent="1" vertex="1">
          <mxGeometry x="140" y="550" width="220" height="20" as="geometry" />
        </mxCell>
        <mxCell id="YSQmjL1IiymvAM0oykPz-38" value="RANKING" style="rounded=0;whiteSpace=wrap;html=1;" parent="1" vertex="1">
          <mxGeometry x="160" y="570" width="200" height="20" as="geometry" />
        </mxCell>
        <mxCell id="YSQmjL1IiymvAM0oykPz-39" value="HEATS" style="rounded=0;whiteSpace=wrap;html=1;fillColor=#f5f5f5;fontColor=#333333;strokeColor=#666666;" parent="1" vertex="1">
          <mxGeometry x="100" y="590" width="260" height="20" as="geometry" />
        </mxCell>
        <mxCell id="YSQmjL1IiymvAM0oykPz-41" value="&lt;span style=&quot;text-align: left;&quot;&gt;HEAT&lt;/span&gt;" style="rounded=0;whiteSpace=wrap;html=1;" parent="1" vertex="1">
          <mxGeometry x="120" y="610" width="240" height="20" as="geometry" />
        </mxCell>
        <mxCell id="YSQmjL1IiymvAM0oykPz-43" value="Details of one age group." style="text;whiteSpace=wrap;html=1;" parent="1" vertex="1">
          <mxGeometry x="370" y="530" width="310" height="20" as="geometry" />
        </mxCell>
        <mxCell id="YSQmjL1IiymvAM0oykPz-44" value="Details for ranking with reference to result elements" style="text;whiteSpace=wrap;html=1;" parent="1" vertex="1">
          <mxGeometry x="370" y="570" width="310" height="20" as="geometry" />
        </mxCell>
        <mxCell id="YSQmjL1IiymvAM0oykPz-45" value="Details of one heat (number, starttime)." style="text;whiteSpace=wrap;html=1;" parent="1" vertex="1">
          <mxGeometry x="370" y="610" width="310" height="20" as="geometry" />
        </mxCell>
        <mxCell id="YSQmjL1IiymvAM0oykPz-46" value="SWIMSTYLE" style="rounded=0;whiteSpace=wrap;html=1;" parent="1" vertex="1">
          <mxGeometry x="100" y="630" width="260" height="20" as="geometry" />
        </mxCell>
        <mxCell id="YSQmjL1IiymvAM0oykPz-47" value="TIMESTANDARDREFS" style="rounded=0;whiteSpace=wrap;html=1;fillColor=#f5f5f5;fontColor=#333333;strokeColor=#666666;" parent="1" vertex="1">
          <mxGeometry x="100" y="650" width="260" height="20" as="geometry" />
        </mxCell>
        <mxCell id="YSQmjL1IiymvAM0oykPz-48" value="Reference to a timestandard list" style="text;whiteSpace=wrap;html=1;" parent="1" vertex="1">
          <mxGeometry x="370" y="670" width="310" height="20" as="geometry" />
        </mxCell>
        <mxCell id="YSQmjL1IiymvAM0oykPz-49" value="TIMESTANDARDREF" style="rounded=0;whiteSpace=wrap;html=1;" parent="1" vertex="1">
          <mxGeometry x="120" y="670" width="240" height="20" as="geometry" />
        </mxCell>
        <mxCell id="YSQmjL1IiymvAM0oykPz-50" value="JUDGES" style="rounded=0;whiteSpace=wrap;html=1;fillColor=#f5f5f5;fontColor=#333333;strokeColor=#666666;" parent="1" vertex="1">
          <mxGeometry x="60" y="690" width="300" height="20" as="geometry" />
        </mxCell>
        <mxCell id="YSQmjL1IiymvAM0oykPz-51" value="JUDGE" style="rounded=0;whiteSpace=wrap;html=1;" parent="1" vertex="1">
          <mxGeometry x="80" y="710" width="280" height="20" as="geometry" />
        </mxCell>
        <mxCell id="YSQmjL1IiymvAM0oykPz-52" value="Details about judges for a session." style="text;whiteSpace=wrap;html=1;" parent="1" vertex="1">
          <mxGeometry x="370" y="710" width="305" height="20" as="geometry" />
        </mxCell>
        <mxCell id="YSQmjL1IiymvAM0oykPz-53" value="ATHLETES" style="rounded=0;whiteSpace=wrap;html=1;fillColor=#f5f5f5;fontColor=#333333;strokeColor=#666666;" parent="1" vertex="1">
          <mxGeometry x="20" y="830" width="340" height="20" as="geometry" />
        </mxCell>
        <mxCell id="YSQmjL1IiymvAM0oykPz-54" value="Data of one athlete." style="text;whiteSpace=wrap;html=1;" parent="1" vertex="1">
          <mxGeometry x="370" y="830" width="310" height="20" as="geometry" />
        </mxCell>
        <mxCell id="YSQmjL1IiymvAM0oykPz-55" value="3.3. Sub tree ATHLETES&lt;br/&gt;" style="rounded=0;whiteSpace=wrap;html=1;fillColor=#fff2cc;strokeColor=#d6b656;align=left;" parent="1" vertex="1">
          <mxGeometry x="20" y="760" width="660" height="30" as="geometry" />
        </mxCell>
        <mxCell id="YSQmjL1IiymvAM0oykPz-57" value="The following tree shows the most important elements in a Lenex tree." style="text;whiteSpace=wrap;html=1;" parent="1" vertex="1">
          <mxGeometry x="20" y="50" width="660" height="30" as="geometry" />
        </mxCell>
        <mxCell id="YSQmjL1IiymvAM0oykPz-58" value="The SESSIONS sub tree describes the entire event structure with prelims and final events and the age&amp;nbsp;groups used for the result lists" style="text;whiteSpace=wrap;html=1;" parent="1" vertex="1">
          <mxGeometry x="20" y="370" width="660" height="40" as="geometry" />
        </mxCell>
        <mxCell id="YSQmjL1IiymvAM0oykPz-59" value="The ATHLETES sub tree contains all athletes of one club with their entries and/or results." style="text;whiteSpace=wrap;html=1;" parent="1" vertex="1">
          <mxGeometry x="20" y="800" width="660" height="30" as="geometry" />
        </mxCell>
        <mxCell id="YSQmjL1IiymvAM0oykPz-60" value="ATHLETE" style="rounded=0;whiteSpace=wrap;html=1;" parent="1" vertex="1">
          <mxGeometry x="40" y="850" width="320" height="20" as="geometry" />
        </mxCell>
        <mxCell id="YSQmjL1IiymvAM0oykPz-62" value="&lt;span style=&quot;text-align: left;&quot;&gt;ENTRIES&lt;/span&gt;" style="rounded=0;whiteSpace=wrap;html=1;fillColor=#f5f5f5;fontColor=#333333;strokeColor=#666666;" parent="1" vertex="1">
          <mxGeometry x="60" y="870" width="300" height="20" as="geometry" />
        </mxCell>
        <mxCell id="YSQmjL1IiymvAM0oykPz-63" value="&lt;span style=&quot;text-align: left;&quot;&gt;ENTRY&lt;/span&gt;" style="rounded=0;whiteSpace=wrap;html=1;" parent="1" vertex="1">
          <mxGeometry x="80" y="890" width="280" height="20" as="geometry" />
        </mxCell>
        <mxCell id="YSQmjL1IiymvAM0oykPz-64" value="ATHLETE" style="rounded=0;whiteSpace=wrap;html=1;" parent="1" vertex="1">
          <mxGeometry x="100" y="910" width="260" height="20" as="geometry" />
        </mxCell>
        <mxCell id="YSQmjL1IiymvAM0oykPz-65" value="&lt;span style=&quot;color: rgb(0, 0, 0); font-family: Helvetica; font-size: 12px; font-style: normal; font-variant-ligatures: normal; font-variant-caps: normal; font-weight: 400; letter-spacing: normal; orphans: 2; text-align: left; text-indent: 0px; text-transform: none; widows: 2; word-spacing: 0px; -webkit-text-stroke-width: 0px; background-color: rgb(248, 249, 250); text-decoration-thickness: initial; text-decoration-style: initial; text-decoration-color: initial; float: none; display: inline !important;&quot;&gt;Entry for one event/round.&lt;/span&gt;" style="text;whiteSpace=wrap;html=1;" parent="1" vertex="1">
          <mxGeometry x="370" y="890" width="310" height="20" as="geometry" />
        </mxCell>
        <mxCell id="YSQmjL1IiymvAM0oykPz-66" value="&lt;span style=&quot;text-align: left;&quot;&gt;MEETINFO&lt;/span&gt;" style="rounded=0;whiteSpace=wrap;html=1;" parent="1" vertex="1">
          <mxGeometry x="120" y="930" width="240" height="20" as="geometry" />
        </mxCell>
        <mxCell id="YSQmjL1IiymvAM0oykPz-67" value="&lt;span style=&quot;text-align: left;&quot;&gt;RESULTS&lt;/span&gt;" style="rounded=0;whiteSpace=wrap;html=1;fillColor=#f5f5f5;fontColor=#333333;strokeColor=#666666;" parent="1" vertex="1">
          <mxGeometry x="80" y="950" width="280" height="20" as="geometry" />
        </mxCell>
        <mxCell id="YSQmjL1IiymvAM0oykPz-68" value="&lt;span style=&quot;text-align: left;&quot;&gt;RESULT&lt;/span&gt;" style="rounded=0;whiteSpace=wrap;html=1;" parent="1" vertex="1">
          <mxGeometry x="100" y="970" width="260" height="20" as="geometry" />
        </mxCell>
        <mxCell id="YSQmjL1IiymvAM0oykPz-69" value="&lt;span style=&quot;text-align: left;&quot;&gt;SPLITS&lt;/span&gt;" style="rounded=0;whiteSpace=wrap;html=1;" parent="1" vertex="1">
          <mxGeometry x="120" y="990" width="240" height="20" as="geometry" />
        </mxCell>
        <mxCell id="YSQmjL1IiymvAM0oykPz-70" value="&lt;span style=&quot;color: rgb(0, 0, 0); font-family: Helvetica; font-size: 12px; font-style: normal; font-variant-ligatures: normal; font-variant-caps: normal; font-weight: 400; letter-spacing: normal; orphans: 2; text-align: left; text-indent: 0px; text-transform: none; widows: 2; word-spacing: 0px; -webkit-text-stroke-width: 0px; background-color: rgb(248, 249, 250); text-decoration-thickness: initial; text-decoration-style: initial; text-decoration-color: initial; float: none; display: inline !important;&quot;&gt;Result for one event/round.&lt;/span&gt;" style="text;whiteSpace=wrap;html=1;" parent="1" vertex="1">
          <mxGeometry x="370" y="970" width="310" height="20" as="geometry" />
        </mxCell>
        <mxCell id="YSQmjL1IiymvAM0oykPz-71" value="RELAYS" style="rounded=0;whiteSpace=wrap;html=1;fillColor=#f5f5f5;fontColor=#333333;strokeColor=#666666;" parent="1" vertex="1">
          <mxGeometry x="20" y="1140" width="340" height="20" as="geometry" />
        </mxCell>
        <mxCell id="YSQmjL1IiymvAM0oykPz-72" value="Data of one relay team." style="text;whiteSpace=wrap;html=1;" parent="1" vertex="1">
          <mxGeometry x="370" y="1160" width="310" height="20" as="geometry" />
        </mxCell>
        <mxCell id="YSQmjL1IiymvAM0oykPz-73" value="3.4. Sub tree RELAYS" style="rounded=0;whiteSpace=wrap;html=1;fillColor=#fff2cc;strokeColor=#d6b656;align=left;" parent="1" vertex="1">
          <mxGeometry x="20" y="1040" width="660" height="30" as="geometry" />
        </mxCell>
        <mxCell id="YSQmjL1IiymvAM0oykPz-74" value="The RELAYS part is used to describe relay entries and results of one club. The relay swimmers are not&lt;br/&gt;stored directly in this tree. A unique id is stored in the tree in order to reference an athlete in the ATHLETES&lt;br/&gt;sub tree." style="text;whiteSpace=wrap;html=1;" parent="1" vertex="1">
          <mxGeometry x="20" y="1080" width="660" height="30" as="geometry" />
        </mxCell>
        <mxCell id="YSQmjL1IiymvAM0oykPz-75" value="RELAY" style="rounded=0;whiteSpace=wrap;html=1;" parent="1" vertex="1">
          <mxGeometry x="40" y="1160" width="320" height="20" as="geometry" />
        </mxCell>
        <mxCell id="YSQmjL1IiymvAM0oykPz-76" value="ENTRIES" style="rounded=0;whiteSpace=wrap;html=1;fillColor=#f5f5f5;fontColor=#333333;strokeColor=#666666;" parent="1" vertex="1">
          <mxGeometry x="60" y="1180" width="300" height="20" as="geometry" />
        </mxCell>
        <mxCell id="YSQmjL1IiymvAM0oykPz-77" value="ENTRY" style="rounded=0;whiteSpace=wrap;html=1;" parent="1" vertex="1">
          <mxGeometry x="80" y="1200" width="280" height="20" as="geometry" />
        </mxCell>
        <mxCell id="YSQmjL1IiymvAM0oykPz-78" value="RELAYPOSITIONS" style="rounded=0;whiteSpace=wrap;html=1;fillColor=#f5f5f5;fontColor=#333333;strokeColor=#666666;" parent="1" vertex="1">
          <mxGeometry x="100" y="1220" width="260" height="20" as="geometry" />
        </mxCell>
        <mxCell id="YSQmjL1IiymvAM0oykPz-79" value="&lt;span style=&quot;color: rgb(0, 0, 0); font-family: Helvetica; font-size: 12px; font-style: normal; font-variant-ligatures: normal; font-variant-caps: normal; font-weight: 400; letter-spacing: normal; orphans: 2; text-align: left; text-indent: 0px; text-transform: none; widows: 2; word-spacing: 0px; -webkit-text-stroke-width: 0px; background-color: rgb(248, 249, 250); text-decoration-thickness: initial; text-decoration-style: initial; text-decoration-color: initial; float: none; display: inline !important;&quot;&gt;Entry for one event/round.&lt;/span&gt;" style="text;whiteSpace=wrap;html=1;" parent="1" vertex="1">
          <mxGeometry x="370" y="1200" width="310" height="20" as="geometry" />
        </mxCell>
        <mxCell id="YSQmjL1IiymvAM0oykPz-80" value="RELAYPOSITION" style="rounded=0;whiteSpace=wrap;html=1;" parent="1" vertex="1">
          <mxGeometry x="120" y="1240" width="240" height="20" as="geometry" />
        </mxCell>
        <mxCell id="YSQmjL1IiymvAM0oykPz-81" value="RESULTS" style="rounded=0;whiteSpace=wrap;html=1;fillColor=#f5f5f5;fontColor=#333333;strokeColor=#666666;" parent="1" vertex="1">
          <mxGeometry x="60" y="1280" width="300" height="20" as="geometry" />
        </mxCell>
        <mxCell id="YSQmjL1IiymvAM0oykPz-82" value="RESULT" style="rounded=0;whiteSpace=wrap;html=1;" parent="1" vertex="1">
          <mxGeometry x="80" y="1300" width="280" height="20" as="geometry" />
        </mxCell>
        <mxCell id="YSQmjL1IiymvAM0oykPz-83" value="RELAYPOSITIONS" style="rounded=0;whiteSpace=wrap;html=1;fillColor=#f5f5f5;fontColor=#333333;strokeColor=#666666;" parent="1" vertex="1">
          <mxGeometry x="100" y="1320" width="260" height="20" as="geometry" />
        </mxCell>
        <mxCell id="YSQmjL1IiymvAM0oykPz-84" value="&lt;span style=&quot;color: rgb(0, 0, 0); font-family: Helvetica; font-size: 12px; font-style: normal; font-variant-ligatures: normal; font-variant-caps: normal; font-weight: 400; letter-spacing: normal; orphans: 2; text-align: left; text-indent: 0px; text-transform: none; widows: 2; word-spacing: 0px; -webkit-text-stroke-width: 0px; background-color: rgb(248, 249, 250); text-decoration-thickness: initial; text-decoration-style: initial; text-decoration-color: initial; float: none; display: inline !important;&quot;&gt;Result for one event/round.&lt;br/&gt;&lt;/span&gt;" style="text;whiteSpace=wrap;html=1;" parent="1" vertex="1">
          <mxGeometry x="370" y="1300" width="310" height="20" as="geometry" />
        </mxCell>
        <mxCell id="YSQmjL1IiymvAM0oykPz-85" value="MEETINFO" style="rounded=0;whiteSpace=wrap;html=1;" parent="1" vertex="1">
          <mxGeometry x="140" y="1260" width="220" height="20" as="geometry" />
        </mxCell>
        <mxCell id="YSQmjL1IiymvAM0oykPz-86" value="RELAYPOSITION" style="rounded=0;whiteSpace=wrap;html=1;" parent="1" vertex="1">
          <mxGeometry x="120" y="1340" width="240" height="20" as="geometry" />
        </mxCell>
        <mxCell id="YSQmjL1IiymvAM0oykPz-87" value="SPLITS" style="rounded=0;whiteSpace=wrap;html=1;" parent="1" vertex="1">
          <mxGeometry x="100" y="1360" width="260" height="20" as="geometry" />
        </mxCell>
        <mxCell id="YSQmjL1IiymvAM0oykPz-88" value="RECORDLISTS" style="rounded=0;whiteSpace=wrap;html=1;fillColor=#f5f5f5;fontColor=#333333;strokeColor=#666666;" parent="1" vertex="1">
          <mxGeometry x="20" y="1530" width="340" height="20" as="geometry" />
        </mxCell>
        <mxCell id="YSQmjL1IiymvAM0oykPz-89" value="Data of one record list (type, gender, course)" style="text;whiteSpace=wrap;html=1;" parent="1" vertex="1">
          <mxGeometry x="370" y="1550" width="310" height="20" as="geometry" />
        </mxCell>
        <mxCell id="YSQmjL1IiymvAM0oykPz-90" value="3.5. Sub tree RECORDLISTS" style="rounded=0;whiteSpace=wrap;html=1;fillColor=#fff2cc;strokeColor=#d6b656;align=left;" parent="1" vertex="1">
          <mxGeometry x="20" y="1420" width="660" height="30" as="geometry" />
        </mxCell>
        <mxCell id="YSQmjL1IiymvAM0oykPz-91" value="The sub tree RECORDLISTS is used to define all kind of records. One record list contains all records of a&lt;br/&gt;specific type (e.g. world records), gender and pool length (course). In this sub tree, the information about the&lt;br/&gt;athletes is represented by means of complete ATHLETE objects, and not just as a reference to some other&lt;br/&gt;sub tree." style="text;whiteSpace=wrap;html=1;" parent="1" vertex="1">
          <mxGeometry x="20" y="1460" width="660" height="70" as="geometry" />
        </mxCell>
        <mxCell id="YSQmjL1IiymvAM0oykPz-92" value="RECORDLIST" style="rounded=0;whiteSpace=wrap;html=1;" parent="1" vertex="1">
          <mxGeometry x="40" y="1550" width="320" height="20" as="geometry" />
        </mxCell>
        <mxCell id="YSQmjL1IiymvAM0oykPz-93" value="AGEGROUP" style="rounded=0;whiteSpace=wrap;html=1;" parent="1" vertex="1">
          <mxGeometry x="60" y="1570" width="300" height="20" as="geometry" />
        </mxCell>
        <mxCell id="YSQmjL1IiymvAM0oykPz-94" value="RECORD" style="rounded=0;whiteSpace=wrap;html=1;" parent="1" vertex="1">
          <mxGeometry x="80" y="1610" width="280" height="20" as="geometry" />
        </mxCell>
        <mxCell id="YSQmjL1IiymvAM0oykPz-95" value="SWIMSTYLE" style="rounded=0;whiteSpace=wrap;html=1;" parent="1" vertex="1">
          <mxGeometry x="100" y="1630" width="260" height="20" as="geometry" />
        </mxCell>
        <mxCell id="YSQmjL1IiymvAM0oykPz-96" value="&lt;span style=&quot;color: rgb(0, 0, 0); font-family: Helvetica; font-size: 12px; font-style: normal; font-variant-ligatures: normal; font-variant-caps: normal; font-weight: 400; letter-spacing: normal; orphans: 2; text-align: left; text-indent: 0px; text-transform: none; widows: 2; word-spacing: 0px; -webkit-text-stroke-width: 0px; background-color: rgb(248, 249, 250); text-decoration-thickness: initial; text-decoration-style: initial; text-decoration-color: initial; float: none; display: inline !important;&quot;&gt;Data of one record (individual or relay)&lt;/span&gt;" style="text;whiteSpace=wrap;html=1;" parent="1" vertex="1">
          <mxGeometry x="370" y="1610" width="310" height="20" as="geometry" />
        </mxCell>
        <mxCell id="YSQmjL1IiymvAM0oykPz-97" value="RELAYPOSITION" style="rounded=0;whiteSpace=wrap;html=1;" parent="1" vertex="1">
          <mxGeometry x="140" y="1710" width="220" height="20" as="geometry" />
        </mxCell>
        <mxCell id="YSQmjL1IiymvAM0oykPz-100" value="MEETINFO" style="rounded=0;whiteSpace=wrap;html=1;" parent="1" vertex="1">
          <mxGeometry x="100" y="1750" width="260" height="20" as="geometry" />
        </mxCell>
        <mxCell id="YSQmjL1IiymvAM0oykPz-102" value="ATHLETE" style="rounded=0;whiteSpace=wrap;html=1;" parent="1" vertex="1">
          <mxGeometry x="160" y="1730" width="200" height="20" as="geometry" />
        </mxCell>
        <mxCell id="YSQmjL1IiymvAM0oykPz-104" value="SPLITS" style="rounded=0;whiteSpace=wrap;html=1;" parent="1" vertex="1">
          <mxGeometry x="100" y="1770" width="260" height="20" as="geometry" />
        </mxCell>
        <mxCell id="YSQmjL1IiymvAM0oykPz-105" value="RECORDS" style="rounded=0;whiteSpace=wrap;html=1;fillColor=#f5f5f5;fontColor=#333333;strokeColor=#666666;" parent="1" vertex="1">
          <mxGeometry x="60" y="1590" width="300" height="20" as="geometry" />
        </mxCell>
        <mxCell id="YSQmjL1IiymvAM0oykPz-106" value="ATHLETE" style="rounded=0;whiteSpace=wrap;html=1;" parent="1" vertex="1">
          <mxGeometry x="100" y="1650" width="260" height="20" as="geometry" />
        </mxCell>
        <mxCell id="YSQmjL1IiymvAM0oykPz-107" value="RELAY" style="rounded=0;whiteSpace=wrap;html=1;" parent="1" vertex="1">
          <mxGeometry x="100" y="1670" width="260" height="20" as="geometry" />
        </mxCell>
        <mxCell id="YSQmjL1IiymvAM0oykPz-108" value="RELAYPOSITIONS" style="rounded=0;whiteSpace=wrap;html=1;fillColor=#f5f5f5;fontColor=#333333;strokeColor=#666666;" parent="1" vertex="1">
          <mxGeometry x="120" y="1690" width="240" height="20" as="geometry" />
        </mxCell>
        <mxCell id="YSQmjL1IiymvAM0oykPz-110" value="TIMESTANDARDLISTS" style="rounded=0;whiteSpace=wrap;html=1;fillColor=#f5f5f5;fontColor=#333333;strokeColor=#666666;" parent="1" vertex="1">
          <mxGeometry x="20" y="1900" width="340" height="20" as="geometry" />
        </mxCell>
        <mxCell id="YSQmjL1IiymvAM0oykPz-111" value="Time standards (type, gender, course)" style="text;whiteSpace=wrap;html=1;" parent="1" vertex="1">
          <mxGeometry x="370" y="1920" width="310" height="20" as="geometry" />
        </mxCell>
        <mxCell id="YSQmjL1IiymvAM0oykPz-112" value="3.6. Sub tree TIMESTANDARDLISTS" style="rounded=0;whiteSpace=wrap;html=1;fillColor=#fff2cc;strokeColor=#d6b656;align=left;" parent="1" vertex="1">
          <mxGeometry x="20" y="1830" width="660" height="30" as="geometry" />
        </mxCell>
        <mxCell id="YSQmjL1IiymvAM0oykPz-113" value="The sub tree TIMESTANDARDLISTS is used to define time standards and qualification times." style="text;whiteSpace=wrap;html=1;" parent="1" vertex="1">
          <mxGeometry x="20" y="1870" width="660" height="30" as="geometry" />
        </mxCell>
        <mxCell id="YSQmjL1IiymvAM0oykPz-114" value="TIMESTANDARDLIST" style="rounded=0;whiteSpace=wrap;html=1;" parent="1" vertex="1">
          <mxGeometry x="40" y="1920" width="320" height="20" as="geometry" />
        </mxCell>
        <mxCell id="YSQmjL1IiymvAM0oykPz-115" value="TIMESTANDARDS" style="rounded=0;whiteSpace=wrap;html=1;fillColor=#f5f5f5;fontColor=#333333;strokeColor=#666666;" parent="1" vertex="1">
          <mxGeometry x="60" y="1940" width="300" height="20" as="geometry" />
        </mxCell>
        <mxCell id="YSQmjL1IiymvAM0oykPz-116" value="SWIMSTYLE" style="rounded=0;whiteSpace=wrap;html=1;" parent="1" vertex="1">
          <mxGeometry x="80" y="1980" width="280" height="20" as="geometry" />
        </mxCell>
        <mxCell id="YSQmjL1IiymvAM0oykPz-118" value="&lt;span style=&quot;color: rgb(0, 0, 0); font-family: Helvetica; font-size: 12px; font-style: normal; font-variant-ligatures: normal; font-variant-caps: normal; font-weight: 400; letter-spacing: normal; orphans: 2; text-align: left; text-indent: 0px; text-transform: none; widows: 2; word-spacing: 0px; -webkit-text-stroke-width: 0px; background-color: rgb(248, 249, 250); text-decoration-thickness: initial; text-decoration-style: initial; text-decoration-color: initial; float: none; display: inline !important;&quot;&gt;Data of one time standard / qual. time&lt;/span&gt;" style="text;whiteSpace=wrap;html=1;" parent="1" vertex="1">
          <mxGeometry x="370" y="1960" width="310" height="20" as="geometry" />
        </mxCell>
        <mxCell id="YSQmjL1IiymvAM0oykPz-123" value="TIMESTANDARD" style="rounded=0;whiteSpace=wrap;html=1;" parent="1" vertex="1">
          <mxGeometry x="60" y="1960" width="300" height="20" as="geometry" />
        </mxCell>
      </root>
    </mxGraphModel>
  </diagram>
  <diagram id="1d8OwG-yivxuTBusSEWh" name="Page-5">
    <mxGraphModel dx="1865" dy="539" grid="1" gridSize="10" guides="1" tooltips="1" connect="1" arrows="1" fold="1" page="1" pageScale="1" pageWidth="827" pageHeight="1169" math="0" shadow="0">
      <root>
        <mxCell id="0" />
        <mxCell id="1" parent="0" />
        <mxCell id="PPmTQ5JIbKEAMsSIk3v8-131" value="CLUBS" style="rounded=0;whiteSpace=wrap;html=1;fillColor=#FFD966;" vertex="1" parent="1">
          <mxGeometry x="-280" y="130" width="140" height="20" as="geometry" />
        </mxCell>
        <mxCell id="PPmTQ5JIbKEAMsSIk3v8-1" value="AGEDATE" style="rounded=0;whiteSpace=wrap;html=1;fillColor=#DAE8FC;" vertex="1" parent="1">
          <mxGeometry x="-280" y="100" width="140" height="20" as="geometry" />
        </mxCell>
        <mxCell id="PPmTQ5JIbKEAMsSIk3v8-129" style="edgeStyle=orthogonalEdgeStyle;rounded=0;orthogonalLoop=1;jettySize=auto;html=1;entryX=0;entryY=0.5;entryDx=0;entryDy=0;startArrow=oval;startFill=1;endArrow=none;endFill=0;" edge="1" parent="1" source="PPmTQ5JIbKEAMsSIk3v8-8" target="PPmTQ5JIbKEAMsSIk3v8-128">
          <mxGeometry relative="1" as="geometry" />
        </mxCell>
        <mxCell id="PPmTQ5JIbKEAMsSIk3v8-8" value="CONSTRUCTOR" style="rounded=0;whiteSpace=wrap;html=1;fillColor=#DAE8FC;" vertex="1" parent="1">
          <mxGeometry x="-640" y="10" width="140" height="20" as="geometry" />
        </mxCell>
        <mxCell id="PPmTQ5JIbKEAMsSIk3v8-10" value="ENTRIES" style="rounded=0;whiteSpace=wrap;html=1;fillColor=#DAE8FC;" vertex="1" parent="1">
          <mxGeometry x="-800" y="1160" width="140" height="20" as="geometry" />
        </mxCell>
        <mxCell id="PPmTQ5JIbKEAMsSIk3v8-205" style="edgeStyle=orthogonalEdgeStyle;rounded=0;orthogonalLoop=1;jettySize=auto;html=1;entryX=0;entryY=0.5;entryDx=0;entryDy=0;startArrow=oval;startFill=1;endArrow=none;endFill=0;" edge="1" parent="1" source="PPmTQ5JIbKEAMsSIk3v8-11" target="PPmTQ5JIbKEAMsSIk3v8-204">
          <mxGeometry relative="1" as="geometry" />
        </mxCell>
        <mxCell id="PPmTQ5JIbKEAMsSIk3v8-11" value="ENTRY" style="rounded=0;whiteSpace=wrap;html=1;fillColor=#DAE8FC;" vertex="1" parent="1">
          <mxGeometry x="-620" y="1160" width="140" height="20" as="geometry" />
        </mxCell>
        <mxCell id="PPmTQ5JIbKEAMsSIk3v8-12" value="FACILITY" style="rounded=0;whiteSpace=wrap;html=1;fillColor=#DAE8FC;" vertex="1" parent="1">
          <mxGeometry x="-280" y="190" width="140" height="20" as="geometry" />
        </mxCell>
        <mxCell id="PPmTQ5JIbKEAMsSIk3v8-13" value="FEE" style="rounded=0;whiteSpace=wrap;html=1;fillColor=#DAE8FC;" vertex="1" parent="1">
          <mxGeometry x="980" y="490" width="140" height="20" as="geometry" />
        </mxCell>
        <mxCell id="PPmTQ5JIbKEAMsSIk3v8-15" value="HEAT" style="rounded=0;whiteSpace=wrap;html=1;fillColor=#DAE8FC;" vertex="1" parent="1">
          <mxGeometry x="620" y="400" width="140" height="20" as="geometry" />
        </mxCell>
        <mxCell id="PPmTQ5JIbKEAMsSIk3v8-16" value="HEATS" style="rounded=0;whiteSpace=wrap;html=1;fillColor=#DAE8FC;" vertex="1" parent="1">
          <mxGeometry x="440" y="400" width="140" height="20" as="geometry" />
        </mxCell>
        <mxCell id="PPmTQ5JIbKEAMsSIk3v8-17" value="JUDGE" style="rounded=0;whiteSpace=wrap;html=1;fillColor=#DAE8FC;" vertex="1" parent="1">
          <mxGeometry x="263" y="340" width="140" height="20" as="geometry" />
        </mxCell>
        <mxCell id="PPmTQ5JIbKEAMsSIk3v8-117" style="edgeStyle=orthogonalEdgeStyle;curved=1;rounded=0;orthogonalLoop=1;jettySize=auto;html=1;entryX=0;entryY=0.5;entryDx=0;entryDy=0;startArrow=oval;startFill=1;endArrow=none;endFill=0;" edge="1" parent="1" source="PPmTQ5JIbKEAMsSIk3v8-18" target="PPmTQ5JIbKEAMsSIk3v8-17">
          <mxGeometry relative="1" as="geometry" />
        </mxCell>
        <mxCell id="PPmTQ5JIbKEAMsSIk3v8-19" value="LENEX" style="rounded=0;whiteSpace=wrap;html=1;fillColor=#DAE8FC;" vertex="1" parent="1">
          <mxGeometry x="-820" y="10" width="140" height="20" as="geometry" />
        </mxCell>
        <mxCell id="PPmTQ5JIbKEAMsSIk3v8-130" style="edgeStyle=orthogonalEdgeStyle;rounded=0;orthogonalLoop=1;jettySize=auto;html=1;entryX=0;entryY=0.5;entryDx=0;entryDy=0;startArrow=oval;startFill=1;endArrow=none;endFill=0;" edge="1" parent="1" source="PPmTQ5JIbKEAMsSIk3v8-20" target="PPmTQ5JIbKEAMsSIk3v8-1">
          <mxGeometry relative="1" as="geometry" />
        </mxCell>
        <mxCell id="PPmTQ5JIbKEAMsSIk3v8-137" style="edgeStyle=orthogonalEdgeStyle;rounded=0;orthogonalLoop=1;jettySize=auto;html=1;entryX=0;entryY=0.5;entryDx=0;entryDy=0;startArrow=oval;startFill=1;endArrow=none;endFill=0;" edge="1" parent="1" source="PPmTQ5JIbKEAMsSIk3v8-20" target="PPmTQ5JIbKEAMsSIk3v8-131">
          <mxGeometry relative="1" as="geometry" />
        </mxCell>
        <mxCell id="PPmTQ5JIbKEAMsSIk3v8-138" style="edgeStyle=orthogonalEdgeStyle;rounded=0;orthogonalLoop=1;jettySize=auto;html=1;entryX=0;entryY=0.5;entryDx=0;entryDy=0;startArrow=oval;startFill=1;endArrow=none;endFill=0;" edge="1" parent="1" source="PPmTQ5JIbKEAMsSIk3v8-20" target="PPmTQ5JIbKEAMsSIk3v8-132">
          <mxGeometry relative="1" as="geometry" />
        </mxCell>
        <mxCell id="PPmTQ5JIbKEAMsSIk3v8-139" style="edgeStyle=orthogonalEdgeStyle;rounded=0;orthogonalLoop=1;jettySize=auto;html=1;entryX=0;entryY=0.5;entryDx=0;entryDy=0;startArrow=oval;startFill=1;endArrow=none;endFill=0;" edge="1" parent="1" source="PPmTQ5JIbKEAMsSIk3v8-20" target="PPmTQ5JIbKEAMsSIk3v8-12">
          <mxGeometry relative="1" as="geometry" />
        </mxCell>
        <mxCell id="PPmTQ5JIbKEAMsSIk3v8-140" style="edgeStyle=orthogonalEdgeStyle;rounded=0;orthogonalLoop=1;jettySize=auto;html=1;entryX=0;entryY=0.5;entryDx=0;entryDy=0;startArrow=oval;startFill=1;endArrow=none;endFill=0;" edge="1" parent="1" source="PPmTQ5JIbKEAMsSIk3v8-20" target="PPmTQ5JIbKEAMsSIk3v8-133">
          <mxGeometry relative="1" as="geometry" />
        </mxCell>
        <mxCell id="PPmTQ5JIbKEAMsSIk3v8-141" style="edgeStyle=orthogonalEdgeStyle;rounded=0;orthogonalLoop=1;jettySize=auto;html=1;entryX=0;entryY=0.5;entryDx=0;entryDy=0;startArrow=oval;startFill=1;endArrow=none;endFill=0;" edge="1" parent="1" source="PPmTQ5JIbKEAMsSIk3v8-20" target="PPmTQ5JIbKEAMsSIk3v8-28">
          <mxGeometry relative="1" as="geometry" />
        </mxCell>
        <mxCell id="PPmTQ5JIbKEAMsSIk3v8-142" style="edgeStyle=orthogonalEdgeStyle;rounded=0;orthogonalLoop=1;jettySize=auto;html=1;entryX=0;entryY=0.5;entryDx=0;entryDy=0;startArrow=oval;startFill=1;endArrow=none;endFill=0;" edge="1" parent="1" source="PPmTQ5JIbKEAMsSIk3v8-20" target="PPmTQ5JIbKEAMsSIk3v8-135">
          <mxGeometry relative="1" as="geometry" />
        </mxCell>
        <mxCell id="PPmTQ5JIbKEAMsSIk3v8-143" style="edgeStyle=orthogonalEdgeStyle;rounded=0;orthogonalLoop=1;jettySize=auto;html=1;entryX=0;entryY=0.25;entryDx=0;entryDy=0;startArrow=oval;startFill=1;endArrow=none;endFill=0;" edge="1" parent="1" source="PPmTQ5JIbKEAMsSIk3v8-20" target="PPmTQ5JIbKEAMsSIk3v8-30">
          <mxGeometry relative="1" as="geometry" />
        </mxCell>
        <mxCell id="PPmTQ5JIbKEAMsSIk3v8-144" style="edgeStyle=orthogonalEdgeStyle;rounded=0;orthogonalLoop=1;jettySize=auto;html=1;entryX=0;entryY=0.5;entryDx=0;entryDy=0;startArrow=oval;startFill=1;endArrow=none;endFill=0;exitX=1;exitY=0.5;exitDx=0;exitDy=0;" edge="1" parent="1" source="PPmTQ5JIbKEAMsSIk3v8-20" target="PPmTQ5JIbKEAMsSIk3v8-44">
          <mxGeometry relative="1" as="geometry">
            <mxPoint x="-360" y="170" as="sourcePoint" />
          </mxGeometry>
        </mxCell>
        <mxCell id="PPmTQ5JIbKEAMsSIk3v8-20" value="MEET" style="rounded=0;whiteSpace=wrap;html=1;fillColor=#DAE8FC;" vertex="1" parent="1">
          <mxGeometry x="-460" y="100" width="140" height="20" as="geometry" />
        </mxCell>
        <mxCell id="PPmTQ5JIbKEAMsSIk3v8-21" value="EVENT" style="rounded=0;whiteSpace=wrap;html=1;fillColor=#DAE8FC;" vertex="1" parent="1">
          <mxGeometry x="263" y="370" width="140" height="20" as="geometry" />
        </mxCell>
        <mxCell id="PPmTQ5JIbKEAMsSIk3v8-22" value="EVENTS" style="rounded=0;whiteSpace=wrap;html=1;fillColor=#DAE8FC;" vertex="1" parent="1">
          <mxGeometry x="80" y="370" width="140" height="20" as="geometry" />
        </mxCell>
        <mxCell id="PPmTQ5JIbKEAMsSIk3v8-24" value="MEETINFO" style="rounded=0;whiteSpace=wrap;html=1;fillColor=#FFD966;" vertex="1" parent="1">
          <mxGeometry x="-440" y="1160" width="140" height="20" as="geometry" />
        </mxCell>
        <mxCell id="PPmTQ5JIbKEAMsSIk3v8-25" value="MEETS" style="rounded=0;whiteSpace=wrap;html=1;fillColor=#DAE8FC;" vertex="1" parent="1">
          <mxGeometry x="-640" y="100" width="140" height="20" as="geometry" />
        </mxCell>
        <mxCell id="PPmTQ5JIbKEAMsSIk3v8-28" value="POINTTABLE" style="rounded=0;whiteSpace=wrap;html=1;fillColor=#DAE8FC;" vertex="1" parent="1">
          <mxGeometry x="-280" y="250" width="140" height="20" as="geometry" />
        </mxCell>
        <mxCell id="PPmTQ5JIbKEAMsSIk3v8-30" value="QUALIFY" style="rounded=0;whiteSpace=wrap;html=1;fillColor=#DAE8FC;" vertex="1" parent="1">
          <mxGeometry x="-280" y="310" width="140" height="20" as="geometry" />
        </mxCell>
        <mxCell id="PPmTQ5JIbKEAMsSIk3v8-186" style="edgeStyle=orthogonalEdgeStyle;rounded=0;orthogonalLoop=1;jettySize=auto;html=1;entryX=0;entryY=0.5;entryDx=0;entryDy=0;startArrow=oval;startFill=1;endArrow=none;endFill=0;" edge="1" parent="1" source="PPmTQ5JIbKEAMsSIk3v8-33" target="PPmTQ5JIbKEAMsSIk3v8-182">
          <mxGeometry relative="1" as="geometry" />
        </mxCell>
        <mxCell id="PPmTQ5JIbKEAMsSIk3v8-187" style="edgeStyle=orthogonalEdgeStyle;rounded=0;orthogonalLoop=1;jettySize=auto;html=1;entryX=0;entryY=0.5;entryDx=0;entryDy=0;startArrow=oval;startFill=1;endArrow=none;endFill=0;" edge="1" parent="1" source="PPmTQ5JIbKEAMsSIk3v8-33" target="PPmTQ5JIbKEAMsSIk3v8-183">
          <mxGeometry relative="1" as="geometry" />
        </mxCell>
        <mxCell id="PPmTQ5JIbKEAMsSIk3v8-188" style="edgeStyle=orthogonalEdgeStyle;rounded=0;orthogonalLoop=1;jettySize=auto;html=1;entryX=0;entryY=0.5;entryDx=0;entryDy=0;startArrow=oval;startFill=1;endArrow=none;endFill=0;" edge="1" parent="1" source="PPmTQ5JIbKEAMsSIk3v8-33" target="PPmTQ5JIbKEAMsSIk3v8-180">
          <mxGeometry relative="1" as="geometry" />
        </mxCell>
        <mxCell id="PPmTQ5JIbKEAMsSIk3v8-189" style="edgeStyle=orthogonalEdgeStyle;rounded=0;orthogonalLoop=1;jettySize=auto;html=1;entryX=0;entryY=0.5;entryDx=0;entryDy=0;startArrow=oval;startFill=1;endArrow=none;endFill=0;" edge="1" parent="1" source="PPmTQ5JIbKEAMsSIk3v8-33" target="PPmTQ5JIbKEAMsSIk3v8-184">
          <mxGeometry relative="1" as="geometry" />
        </mxCell>
        <mxCell id="PPmTQ5JIbKEAMsSIk3v8-190" style="edgeStyle=orthogonalEdgeStyle;rounded=0;orthogonalLoop=1;jettySize=auto;html=1;entryX=0;entryY=0.5;entryDx=0;entryDy=0;startArrow=oval;startFill=1;endArrow=none;endFill=0;" edge="1" parent="1" source="PPmTQ5JIbKEAMsSIk3v8-33" target="PPmTQ5JIbKEAMsSIk3v8-185">
          <mxGeometry relative="1" as="geometry" />
        </mxCell>
        <mxCell id="PPmTQ5JIbKEAMsSIk3v8-33" value="RECORD" style="rounded=0;whiteSpace=wrap;html=1;fillColor=#DAE8FC;" vertex="1" parent="1">
          <mxGeometry x="-100" y="480" width="140" height="20" as="geometry" />
        </mxCell>
        <mxCell id="PPmTQ5JIbKEAMsSIk3v8-35" value="RECORDLISTS" style="rounded=0;whiteSpace=wrap;html=1;fillColor=#DAE8FC;" vertex="1" parent="1">
          <mxGeometry x="-640" y="480" width="140" height="20" as="geometry" />
        </mxCell>
        <mxCell id="PPmTQ5JIbKEAMsSIk3v8-105" style="edgeStyle=orthogonalEdgeStyle;rounded=0;orthogonalLoop=1;jettySize=auto;html=1;entryX=0;entryY=0.5;entryDx=0;entryDy=0;startArrow=oval;startFill=1;endArrow=none;endFill=0;" edge="1" parent="1" source="PPmTQ5JIbKEAMsSIk3v8-36" target="PPmTQ5JIbKEAMsSIk3v8-34">
          <mxGeometry relative="1" as="geometry" />
        </mxCell>
        <mxCell id="PPmTQ5JIbKEAMsSIk3v8-146" style="edgeStyle=orthogonalEdgeStyle;rounded=0;orthogonalLoop=1;jettySize=auto;html=1;entryX=0;entryY=0.5;entryDx=0;entryDy=0;startArrow=oval;startFill=1;endArrow=none;endFill=0;" edge="1" parent="1" source="PPmTQ5JIbKEAMsSIk3v8-36" target="PPmTQ5JIbKEAMsSIk3v8-145">
          <mxGeometry relative="1" as="geometry" />
        </mxCell>
        <mxCell id="PPmTQ5JIbKEAMsSIk3v8-36" value="RECORDLIST" style="rounded=0;whiteSpace=wrap;html=1;fillColor=#DAE8FC;" vertex="1" parent="1">
          <mxGeometry x="-460" y="480" width="140" height="20" as="geometry" />
        </mxCell>
        <mxCell id="PPmTQ5JIbKEAMsSIk3v8-149" style="edgeStyle=orthogonalEdgeStyle;rounded=0;orthogonalLoop=1;jettySize=auto;html=1;startArrow=oval;startFill=1;endArrow=none;endFill=0;entryX=0;entryY=0.5;entryDx=0;entryDy=0;" edge="1" parent="1" source="PPmTQ5JIbKEAMsSIk3v8-39" target="PPmTQ5JIbKEAMsSIk3v8-147">
          <mxGeometry relative="1" as="geometry" />
        </mxCell>
        <mxCell id="PPmTQ5JIbKEAMsSIk3v8-150" style="edgeStyle=orthogonalEdgeStyle;rounded=0;orthogonalLoop=1;jettySize=auto;html=1;entryX=0;entryY=0.5;entryDx=0;entryDy=0;startArrow=oval;startFill=1;endArrow=none;endFill=0;" edge="1" parent="1" source="PPmTQ5JIbKEAMsSIk3v8-39" target="PPmTQ5JIbKEAMsSIk3v8-148">
          <mxGeometry relative="1" as="geometry" />
        </mxCell>
        <mxCell id="PPmTQ5JIbKEAMsSIk3v8-39" value="RELAYPOSITION" style="rounded=0;whiteSpace=wrap;html=1;fillColor=#DAE8FC;" vertex="1" parent="1">
          <mxGeometry x="-620" y="1430" width="140" height="20" as="geometry" />
        </mxCell>
        <mxCell id="PPmTQ5JIbKEAMsSIk3v8-40" value="RELAYPOSITIONS" style="rounded=0;whiteSpace=wrap;html=1;fillColor=#DAE8FC;" vertex="1" parent="1">
          <mxGeometry x="-800" y="1430" width="140" height="20" as="geometry" />
        </mxCell>
        <mxCell id="PPmTQ5JIbKEAMsSIk3v8-203" style="edgeStyle=orthogonalEdgeStyle;rounded=0;orthogonalLoop=1;jettySize=auto;html=1;entryX=0;entryY=0.5;entryDx=0;entryDy=0;startArrow=oval;startFill=1;endArrow=none;endFill=0;" edge="1" parent="1" source="PPmTQ5JIbKEAMsSIk3v8-41" target="PPmTQ5JIbKEAMsSIk3v8-202">
          <mxGeometry relative="1" as="geometry" />
        </mxCell>
        <mxCell id="PPmTQ5JIbKEAMsSIk3v8-41" value="RESULT" style="rounded=0;whiteSpace=wrap;html=1;fillColor=#DAE8FC;" vertex="1" parent="1">
          <mxGeometry x="-620" y="1510" width="140" height="20" as="geometry" />
        </mxCell>
        <mxCell id="PPmTQ5JIbKEAMsSIk3v8-42" value="RESULTS" style="rounded=0;whiteSpace=wrap;html=1;fillColor=#DAE8FC;" vertex="1" parent="1">
          <mxGeometry x="-800" y="1510" width="140" height="20" as="geometry" />
        </mxCell>
        <mxCell id="PPmTQ5JIbKEAMsSIk3v8-123" style="edgeStyle=orthogonalEdgeStyle;rounded=0;orthogonalLoop=1;jettySize=auto;html=1;entryX=0;entryY=0.5;entryDx=0;entryDy=0;startArrow=oval;startFill=1;endArrow=none;endFill=0;" edge="1" parent="1" source="PPmTQ5JIbKEAMsSIk3v8-43" target="PPmTQ5JIbKEAMsSIk3v8-22">
          <mxGeometry relative="1" as="geometry" />
        </mxCell>
        <mxCell id="PPmTQ5JIbKEAMsSIk3v8-156" style="edgeStyle=orthogonalEdgeStyle;rounded=0;orthogonalLoop=1;jettySize=auto;html=1;entryX=0;entryY=0.5;entryDx=0;entryDy=0;startArrow=oval;startFill=1;endArrow=none;endFill=0;" edge="1" parent="1" source="PPmTQ5JIbKEAMsSIk3v8-43" target="PPmTQ5JIbKEAMsSIk3v8-155">
          <mxGeometry relative="1" as="geometry" />
        </mxCell>
        <mxCell id="PPmTQ5JIbKEAMsSIk3v8-161" style="edgeStyle=orthogonalEdgeStyle;rounded=0;orthogonalLoop=1;jettySize=auto;html=1;entryX=0;entryY=0.5;entryDx=0;entryDy=0;startArrow=oval;startFill=1;endArrow=none;endFill=0;" edge="1" parent="1" source="PPmTQ5JIbKEAMsSIk3v8-43" target="PPmTQ5JIbKEAMsSIk3v8-160">
          <mxGeometry relative="1" as="geometry" />
        </mxCell>
        <mxCell id="PPmTQ5JIbKEAMsSIk3v8-43" value="SESSION" style="rounded=0;whiteSpace=wrap;html=1;fillColor=#DAE8FC;" vertex="1" parent="1">
          <mxGeometry x="-100" y="340" width="140" height="20" as="geometry" />
        </mxCell>
        <mxCell id="PPmTQ5JIbKEAMsSIk3v8-44" value="SESSIONS" style="rounded=0;whiteSpace=wrap;html=1;fillColor=#DAE8FC;" vertex="1" parent="1">
          <mxGeometry x="-280" y="340" width="140" height="20" as="geometry" />
        </mxCell>
        <mxCell id="PPmTQ5JIbKEAMsSIk3v8-45" value="SPLIT" style="rounded=0;whiteSpace=wrap;html=1;fillColor=#DAE8FC;" vertex="1" parent="1">
          <mxGeometry x="-260" y="1540" width="140" height="20" as="geometry" />
        </mxCell>
        <mxCell id="PPmTQ5JIbKEAMsSIk3v8-46" value="SPLITS" style="rounded=0;whiteSpace=wrap;html=1;fillColor=#DAE8FC;" vertex="1" parent="1">
          <mxGeometry x="-440" y="1540" width="140" height="20" as="geometry" />
        </mxCell>
        <mxCell id="PPmTQ5JIbKEAMsSIk3v8-47" value="SWIMSTYLE" style="rounded=0;whiteSpace=wrap;html=1;fillColor=#DAE8FC;" vertex="1" parent="1">
          <mxGeometry x="80" y="40" width="140" height="20" as="geometry" />
        </mxCell>
        <mxCell id="PPmTQ5JIbKEAMsSIk3v8-118" style="edgeStyle=orthogonalEdgeStyle;rounded=0;orthogonalLoop=1;jettySize=auto;html=1;entryX=0;entryY=0.5;entryDx=0;entryDy=0;startArrow=oval;startFill=1;endArrow=none;endFill=0;exitX=1;exitY=0.5;exitDx=0;exitDy=0;" edge="1" parent="1" source="PPmTQ5JIbKEAMsSIk3v8-48" target="PPmTQ5JIbKEAMsSIk3v8-47">
          <mxGeometry relative="1" as="geometry" />
        </mxCell>
        <mxCell id="PPmTQ5JIbKEAMsSIk3v8-49" value="TIMESTANDARDS" style="rounded=0;whiteSpace=wrap;html=1;fillColor=#DAE8FC;" vertex="1" parent="1">
          <mxGeometry x="-280" y="40" width="140" height="20" as="geometry" />
        </mxCell>
        <mxCell id="PPmTQ5JIbKEAMsSIk3v8-120" style="edgeStyle=orthogonalEdgeStyle;rounded=0;orthogonalLoop=1;jettySize=auto;html=1;entryX=0;entryY=0.5;entryDx=0;entryDy=0;startArrow=oval;startFill=1;endArrow=none;endFill=0;" edge="1" parent="1" source="PPmTQ5JIbKEAMsSIk3v8-50" target="PPmTQ5JIbKEAMsSIk3v8-49">
          <mxGeometry relative="1" as="geometry" />
        </mxCell>
        <mxCell id="PPmTQ5JIbKEAMsSIk3v8-159" style="edgeStyle=orthogonalEdgeStyle;rounded=0;orthogonalLoop=1;jettySize=auto;html=1;entryX=0;entryY=0.5;entryDx=0;entryDy=0;startArrow=oval;startFill=1;endArrow=none;endFill=0;" edge="1" parent="1" source="PPmTQ5JIbKEAMsSIk3v8-50" target="PPmTQ5JIbKEAMsSIk3v8-158">
          <mxGeometry relative="1" as="geometry" />
        </mxCell>
        <mxCell id="PPmTQ5JIbKEAMsSIk3v8-50" value="TIMESTANDARDLIST" style="rounded=0;whiteSpace=wrap;html=1;fillColor=#DAE8FC;" vertex="1" parent="1">
          <mxGeometry x="-460" y="40" width="140" height="20" as="geometry" />
        </mxCell>
        <mxCell id="PPmTQ5JIbKEAMsSIk3v8-51" value="TIMESTANDARDLISTS" style="rounded=0;whiteSpace=wrap;html=1;fillColor=#DAE8FC;" vertex="1" parent="1">
          <mxGeometry x="-640" y="40" width="140" height="20" as="geometry" />
        </mxCell>
        <mxCell id="PPmTQ5JIbKEAMsSIk3v8-162" style="edgeStyle=orthogonalEdgeStyle;rounded=0;orthogonalLoop=1;jettySize=auto;html=1;startArrow=oval;startFill=1;endArrow=none;endFill=0;" edge="1" parent="1" source="PPmTQ5JIbKEAMsSIk3v8-52" target="PPmTQ5JIbKEAMsSIk3v8-13">
          <mxGeometry relative="1" as="geometry" />
        </mxCell>
        <mxCell id="PPmTQ5JIbKEAMsSIk3v8-52" value="TIMESTANDARDREF" style="rounded=0;whiteSpace=wrap;html=1;fillColor=#DAE8FC;" vertex="1" parent="1">
          <mxGeometry x="620" y="460" width="140" height="20" as="geometry" />
        </mxCell>
        <mxCell id="PPmTQ5JIbKEAMsSIk3v8-53" value="TIMESTANDARDREFS" style="rounded=0;whiteSpace=wrap;html=1;fillColor=#DAE8FC;" vertex="1" parent="1">
          <mxGeometry x="440" y="460" width="140" height="20" as="geometry" />
        </mxCell>
        <mxCell id="PPmTQ5JIbKEAMsSIk3v8-57" style="edgeStyle=orthogonalEdgeStyle;rounded=0;orthogonalLoop=1;jettySize=auto;html=1;endArrow=none;endFill=0;startArrow=oval;startFill=1;exitX=1;exitY=0.5;exitDx=0;exitDy=0;entryX=0;entryY=0.5;entryDx=0;entryDy=0;" edge="1" parent="1" source="PPmTQ5JIbKEAMsSIk3v8-40" target="PPmTQ5JIbKEAMsSIk3v8-39">
          <mxGeometry relative="1" as="geometry">
            <mxPoint x="-650" y="1420" as="sourcePoint" />
            <mxPoint x="-630" y="1440" as="targetPoint" />
          </mxGeometry>
        </mxCell>
        <mxCell id="PPmTQ5JIbKEAMsSIk3v8-58" style="edgeStyle=orthogonalEdgeStyle;rounded=0;orthogonalLoop=1;jettySize=auto;html=1;entryX=0;entryY=0.5;entryDx=0;entryDy=0;endArrow=none;endFill=0;startArrow=oval;startFill=1;exitX=1;exitY=0.5;exitDx=0;exitDy=0;" edge="1" parent="1" source="PPmTQ5JIbKEAMsSIk3v8-42" target="PPmTQ5JIbKEAMsSIk3v8-41">
          <mxGeometry relative="1" as="geometry">
            <mxPoint x="270" y="1490" as="sourcePoint" />
            <mxPoint x="300" y="1490" as="targetPoint" />
          </mxGeometry>
        </mxCell>
        <mxCell id="PPmTQ5JIbKEAMsSIk3v8-60" style="edgeStyle=orthogonalEdgeStyle;rounded=0;orthogonalLoop=1;jettySize=auto;html=1;entryX=0;entryY=0.5;entryDx=0;entryDy=0;endArrow=none;endFill=0;startArrow=oval;startFill=1;exitX=1;exitY=0.5;exitDx=0;exitDy=0;" edge="1" parent="1" source="PPmTQ5JIbKEAMsSIk3v8-35" target="PPmTQ5JIbKEAMsSIk3v8-36">
          <mxGeometry relative="1" as="geometry">
            <mxPoint x="-470" y="490" as="sourcePoint" />
            <mxPoint x="-440" y="490" as="targetPoint" />
          </mxGeometry>
        </mxCell>
        <mxCell id="PPmTQ5JIbKEAMsSIk3v8-61" style="edgeStyle=orthogonalEdgeStyle;rounded=0;orthogonalLoop=1;jettySize=auto;html=1;endArrow=none;endFill=0;startArrow=oval;startFill=1;exitX=1;exitY=0.5;exitDx=0;exitDy=0;entryX=0;entryY=0.5;entryDx=0;entryDy=0;" edge="1" parent="1" source="PPmTQ5JIbKEAMsSIk3v8-16" target="PPmTQ5JIbKEAMsSIk3v8-15">
          <mxGeometry relative="1" as="geometry">
            <mxPoint x="590" y="610" as="sourcePoint" />
            <mxPoint x="610" y="600" as="targetPoint" />
          </mxGeometry>
        </mxCell>
        <mxCell id="PPmTQ5JIbKEAMsSIk3v8-62" style="edgeStyle=orthogonalEdgeStyle;rounded=0;orthogonalLoop=1;jettySize=auto;html=1;endArrow=none;endFill=0;startArrow=oval;startFill=1;exitX=1;exitY=0.5;exitDx=0;exitDy=0;entryX=0;entryY=0.5;entryDx=0;entryDy=0;" edge="1" parent="1" source="PPmTQ5JIbKEAMsSIk3v8-22" target="PPmTQ5JIbKEAMsSIk3v8-21">
          <mxGeometry relative="1" as="geometry">
            <mxPoint x="233" y="420" as="sourcePoint" />
            <mxPoint x="263" y="420" as="targetPoint" />
          </mxGeometry>
        </mxCell>
        <mxCell id="PPmTQ5JIbKEAMsSIk3v8-63" style="edgeStyle=orthogonalEdgeStyle;rounded=0;orthogonalLoop=1;jettySize=auto;html=1;endArrow=none;endFill=0;startArrow=oval;startFill=1;exitX=1;exitY=0.5;exitDx=0;exitDy=0;entryX=0;entryY=0.5;entryDx=0;entryDy=0;" edge="1" parent="1" source="PPmTQ5JIbKEAMsSIk3v8-10" target="PPmTQ5JIbKEAMsSIk3v8-11">
          <mxGeometry relative="1" as="geometry">
            <mxPoint x="-1020" y="1760" as="sourcePoint" />
            <mxPoint x="-990" y="1760" as="targetPoint" />
          </mxGeometry>
        </mxCell>
        <mxCell id="PPmTQ5JIbKEAMsSIk3v8-65" style="edgeStyle=orthogonalEdgeStyle;rounded=0;orthogonalLoop=1;jettySize=auto;html=1;entryX=0;entryY=0.5;entryDx=0;entryDy=0;endArrow=none;endFill=0;startArrow=oval;startFill=1;exitX=1;exitY=0.5;exitDx=0;exitDy=0;" edge="1" parent="1" source="PPmTQ5JIbKEAMsSIk3v8-44" target="PPmTQ5JIbKEAMsSIk3v8-43">
          <mxGeometry relative="1" as="geometry">
            <mxPoint x="-47" y="555" as="sourcePoint" />
            <mxPoint x="-17" y="555" as="targetPoint" />
          </mxGeometry>
        </mxCell>
        <mxCell id="PPmTQ5JIbKEAMsSIk3v8-66" style="edgeStyle=orthogonalEdgeStyle;rounded=0;orthogonalLoop=1;jettySize=auto;html=1;entryX=0;entryY=0.5;entryDx=0;entryDy=0;endArrow=none;endFill=0;startArrow=oval;startFill=1;exitX=1;exitY=0.5;exitDx=0;exitDy=0;" edge="1" parent="1" source="PPmTQ5JIbKEAMsSIk3v8-46" target="PPmTQ5JIbKEAMsSIk3v8-45">
          <mxGeometry relative="1" as="geometry">
            <mxPoint x="-470" y="1320" as="sourcePoint" />
            <mxPoint x="-430" y="1300" as="targetPoint" />
          </mxGeometry>
        </mxCell>
        <mxCell id="PPmTQ5JIbKEAMsSIk3v8-67" style="edgeStyle=orthogonalEdgeStyle;rounded=0;orthogonalLoop=1;jettySize=auto;html=1;entryX=0;entryY=0.5;entryDx=0;entryDy=0;endArrow=none;endFill=0;startArrow=oval;startFill=1;exitX=1;exitY=0.5;exitDx=0;exitDy=0;" edge="1" parent="1" source="PPmTQ5JIbKEAMsSIk3v8-49" target="PPmTQ5JIbKEAMsSIk3v8-48">
          <mxGeometry relative="1" as="geometry">
            <mxPoint x="-130" y="120" as="sourcePoint" />
            <mxPoint x="-80" y="80" as="targetPoint" />
          </mxGeometry>
        </mxCell>
        <mxCell id="PPmTQ5JIbKEAMsSIk3v8-68" style="edgeStyle=orthogonalEdgeStyle;rounded=0;orthogonalLoop=1;jettySize=auto;html=1;entryX=0;entryY=0.5;entryDx=0;entryDy=0;endArrow=none;endFill=0;startArrow=oval;startFill=1;exitX=1;exitY=0.5;exitDx=0;exitDy=0;" edge="1" parent="1" source="PPmTQ5JIbKEAMsSIk3v8-51" target="PPmTQ5JIbKEAMsSIk3v8-50">
          <mxGeometry relative="1" as="geometry">
            <mxPoint x="-480" y="120" as="sourcePoint" />
            <mxPoint x="-420" y="60" as="targetPoint" />
          </mxGeometry>
        </mxCell>
        <mxCell id="PPmTQ5JIbKEAMsSIk3v8-69" style="edgeStyle=orthogonalEdgeStyle;rounded=0;orthogonalLoop=1;jettySize=auto;html=1;endArrow=none;endFill=0;startArrow=oval;startFill=1;exitX=1;exitY=0.5;exitDx=0;exitDy=0;entryX=0;entryY=0.5;entryDx=0;entryDy=0;" edge="1" parent="1" source="PPmTQ5JIbKEAMsSIk3v8-53" target="PPmTQ5JIbKEAMsSIk3v8-52">
          <mxGeometry relative="1" as="geometry">
            <mxPoint x="570" y="870" as="sourcePoint" />
            <mxPoint x="580" y="920" as="targetPoint" />
          </mxGeometry>
        </mxCell>
        <mxCell id="PPmTQ5JIbKEAMsSIk3v8-77" style="edgeStyle=orthogonalEdgeStyle;rounded=0;orthogonalLoop=1;jettySize=auto;html=1;exitX=0.5;exitY=1;exitDx=0;exitDy=0;startArrow=oval;startFill=1;endArrow=none;endFill=0;" edge="1" parent="1" source="PPmTQ5JIbKEAMsSIk3v8-41" target="PPmTQ5JIbKEAMsSIk3v8-41">
          <mxGeometry relative="1" as="geometry" />
        </mxCell>
        <mxCell id="PPmTQ5JIbKEAMsSIk3v8-82" style="edgeStyle=orthogonalEdgeStyle;rounded=0;orthogonalLoop=1;jettySize=auto;html=1;endArrow=none;endFill=0;startArrow=oval;startFill=1;exitX=1;exitY=0.5;exitDx=0;exitDy=0;entryX=0;entryY=0.5;entryDx=0;entryDy=0;" edge="1" parent="1" source="PPmTQ5JIbKEAMsSIk3v8-21" target="PPmTQ5JIbKEAMsSIk3v8-3">
          <mxGeometry relative="1" as="geometry">
            <mxPoint x="233" y="550" as="sourcePoint" />
            <mxPoint x="273" y="550" as="targetPoint" />
          </mxGeometry>
        </mxCell>
        <mxCell id="PPmTQ5JIbKEAMsSIk3v8-83" style="rounded=0;orthogonalLoop=1;jettySize=auto;html=1;endArrow=none;endFill=0;startArrow=oval;startFill=1;entryX=0;entryY=0.5;entryDx=0;entryDy=0;exitX=1;exitY=0.5;exitDx=0;exitDy=0;edgeStyle=orthogonalEdgeStyle;" edge="1" parent="1" source="PPmTQ5JIbKEAMsSIk3v8-21" target="PPmTQ5JIbKEAMsSIk3v8-16">
          <mxGeometry relative="1" as="geometry">
            <mxPoint x="413" y="550" as="sourcePoint" />
            <mxPoint x="453" y="550" as="targetPoint" />
            <Array as="points">
              <mxPoint x="420" y="380" />
              <mxPoint x="420" y="410" />
            </Array>
          </mxGeometry>
        </mxCell>
        <mxCell id="PPmTQ5JIbKEAMsSIk3v8-84" style="edgeStyle=orthogonalEdgeStyle;rounded=0;orthogonalLoop=1;jettySize=auto;html=1;endArrow=none;endFill=0;startArrow=none;startFill=1;entryX=0;entryY=0.5;entryDx=0;entryDy=0;" edge="1" parent="1" target="PPmTQ5JIbKEAMsSIk3v8-206">
          <mxGeometry relative="1" as="geometry">
            <mxPoint x="400" y="380" as="sourcePoint" />
            <mxPoint x="453" y="580" as="targetPoint" />
          </mxGeometry>
        </mxCell>
        <mxCell id="PPmTQ5JIbKEAMsSIk3v8-85" style="rounded=0;orthogonalLoop=1;jettySize=auto;html=1;endArrow=none;endFill=0;startArrow=oval;startFill=1;entryX=0;entryY=0.5;entryDx=0;entryDy=0;exitX=1;exitY=0.5;exitDx=0;exitDy=0;edgeStyle=orthogonalEdgeStyle;" edge="1" parent="1" source="PPmTQ5JIbKEAMsSIk3v8-21" target="PPmTQ5JIbKEAMsSIk3v8-53">
          <mxGeometry relative="1" as="geometry">
            <mxPoint x="413" y="550" as="sourcePoint" />
            <mxPoint x="453" y="610" as="targetPoint" />
            <Array as="points">
              <mxPoint x="420" y="380" />
              <mxPoint x="420" y="470" />
            </Array>
          </mxGeometry>
        </mxCell>
        <mxCell id="PPmTQ5JIbKEAMsSIk3v8-89" value="FEES" style="rounded=0;whiteSpace=wrap;html=1;fillColor=#DAE8FC;" vertex="1" parent="1">
          <mxGeometry x="800" y="490" width="140" height="20" as="geometry" />
        </mxCell>
        <mxCell id="PPmTQ5JIbKEAMsSIk3v8-90" style="edgeStyle=orthogonalEdgeStyle;rounded=0;orthogonalLoop=1;jettySize=auto;html=1;endArrow=none;endFill=0;startArrow=oval;startFill=1;exitX=1;exitY=0.5;exitDx=0;exitDy=0;entryX=0;entryY=0.5;entryDx=0;entryDy=0;" edge="1" parent="1" source="PPmTQ5JIbKEAMsSIk3v8-89" target="PPmTQ5JIbKEAMsSIk3v8-13">
          <mxGeometry relative="1" as="geometry">
            <mxPoint x="760" y="500" as="sourcePoint" />
            <mxPoint x="970" y="520" as="targetPoint" />
          </mxGeometry>
        </mxCell>
        <mxCell id="PPmTQ5JIbKEAMsSIk3v8-92" style="edgeStyle=orthogonalEdgeStyle;rounded=0;orthogonalLoop=1;jettySize=auto;html=1;endArrow=none;endFill=0;startArrow=oval;startFill=1;entryX=0;entryY=0.5;entryDx=0;entryDy=0;exitX=1;exitY=0.5;exitDx=0;exitDy=0;" edge="1" parent="1" source="PPmTQ5JIbKEAMsSIk3v8-41" target="PPmTQ5JIbKEAMsSIk3v8-46">
          <mxGeometry relative="1" as="geometry">
            <mxPoint x="160" y="1551" as="sourcePoint" />
            <mxPoint x="210" y="1560" as="targetPoint" />
          </mxGeometry>
        </mxCell>
        <mxCell id="PPmTQ5JIbKEAMsSIk3v8-93" style="edgeStyle=orthogonalEdgeStyle;rounded=0;orthogonalLoop=1;jettySize=auto;html=1;entryX=0;entryY=0.5;entryDx=0;entryDy=0;endArrow=none;endFill=0;startArrow=oval;startFill=1;exitX=1;exitY=0.5;exitDx=0;exitDy=0;" edge="1" parent="1" source="PPmTQ5JIbKEAMsSIk3v8-11" target="PPmTQ5JIbKEAMsSIk3v8-24">
          <mxGeometry relative="1" as="geometry">
            <mxPoint x="-1120" y="1920" as="sourcePoint" />
            <mxPoint x="-1080" y="1920" as="targetPoint" />
          </mxGeometry>
        </mxCell>
        <mxCell id="PPmTQ5JIbKEAMsSIk3v8-97" style="edgeStyle=orthogonalEdgeStyle;rounded=0;orthogonalLoop=1;jettySize=auto;html=1;entryX=0;entryY=0.5;entryDx=0;entryDy=0;endArrow=none;endFill=0;startArrow=oval;startFill=1;exitX=1;exitY=0.5;exitDx=0;exitDy=0;" edge="1" parent="1" source="PPmTQ5JIbKEAMsSIk3v8-19" target="PPmTQ5JIbKEAMsSIk3v8-8">
          <mxGeometry relative="1" as="geometry">
            <mxPoint x="-490" y="149.9999999999999" as="sourcePoint" />
            <mxPoint x="-460" y="149.9999999999999" as="targetPoint" />
          </mxGeometry>
        </mxCell>
        <mxCell id="PPmTQ5JIbKEAMsSIk3v8-98" style="edgeStyle=orthogonalEdgeStyle;rounded=0;orthogonalLoop=1;jettySize=auto;html=1;entryX=0;entryY=0.5;entryDx=0;entryDy=0;endArrow=none;endFill=0;startArrow=oval;startFill=1;exitX=1;exitY=0.5;exitDx=0;exitDy=0;" edge="1" parent="1" source="PPmTQ5JIbKEAMsSIk3v8-19" target="PPmTQ5JIbKEAMsSIk3v8-25">
          <mxGeometry relative="1" as="geometry">
            <mxPoint x="-670" y="90" as="sourcePoint" />
            <mxPoint x="-630" y="90" as="targetPoint" />
          </mxGeometry>
        </mxCell>
        <mxCell id="PPmTQ5JIbKEAMsSIk3v8-99" style="edgeStyle=orthogonalEdgeStyle;rounded=0;orthogonalLoop=1;jettySize=auto;html=1;entryX=0;entryY=0.5;entryDx=0;entryDy=0;endArrow=none;endFill=0;startArrow=oval;startFill=1;exitX=1;exitY=0.5;exitDx=0;exitDy=0;" edge="1" parent="1" source="PPmTQ5JIbKEAMsSIk3v8-19" target="PPmTQ5JIbKEAMsSIk3v8-35">
          <mxGeometry relative="1" as="geometry">
            <mxPoint x="-670" y="360" as="sourcePoint" />
            <mxPoint x="-630" y="390.0000000000001" as="targetPoint" />
            <Array as="points">
              <mxPoint x="-660" y="20" />
              <mxPoint x="-660" y="490" />
            </Array>
          </mxGeometry>
        </mxCell>
        <mxCell id="PPmTQ5JIbKEAMsSIk3v8-100" style="edgeStyle=orthogonalEdgeStyle;rounded=0;orthogonalLoop=1;jettySize=auto;html=1;entryX=0;entryY=0.5;entryDx=0;entryDy=0;endArrow=none;endFill=0;startArrow=oval;startFill=1;exitX=1;exitY=0.5;exitDx=0;exitDy=0;" edge="1" parent="1" source="PPmTQ5JIbKEAMsSIk3v8-19" target="PPmTQ5JIbKEAMsSIk3v8-51">
          <mxGeometry relative="1" as="geometry">
            <mxPoint x="-670" y="90" as="sourcePoint" />
            <mxPoint x="-630" y="149.9999999999999" as="targetPoint" />
          </mxGeometry>
        </mxCell>
        <mxCell id="PPmTQ5JIbKEAMsSIk3v8-101" style="edgeStyle=orthogonalEdgeStyle;rounded=0;orthogonalLoop=1;jettySize=auto;html=1;endArrow=none;endFill=0;startArrow=oval;startFill=1;exitX=1;exitY=0.5;exitDx=0;exitDy=0;entryX=0;entryY=0.5;entryDx=0;entryDy=0;" edge="1" parent="1" source="PPmTQ5JIbKEAMsSIk3v8-25" target="PPmTQ5JIbKEAMsSIk3v8-20">
          <mxGeometry relative="1" as="geometry">
            <mxPoint x="-480" y="179.9999999999999" as="sourcePoint" />
            <mxPoint x="-450" y="60" as="targetPoint" />
          </mxGeometry>
        </mxCell>
        <mxCell id="PPmTQ5JIbKEAMsSIk3v8-103" style="edgeStyle=orthogonalEdgeStyle;rounded=0;orthogonalLoop=1;jettySize=auto;html=1;endArrow=none;endFill=0;startArrow=oval;startFill=1;entryX=0;entryY=0.5;entryDx=0;entryDy=0;exitX=1;exitY=0.5;exitDx=0;exitDy=0;" edge="1" parent="1" source="PPmTQ5JIbKEAMsSIk3v8-34" target="PPmTQ5JIbKEAMsSIk3v8-33">
          <mxGeometry relative="1" as="geometry">
            <mxPoint x="-130" y="450" as="sourcePoint" />
            <mxPoint x="-440" y="430" as="targetPoint" />
          </mxGeometry>
        </mxCell>
        <mxCell id="PPmTQ5JIbKEAMsSIk3v8-48" value="TIMESTANDARD" style="rounded=0;whiteSpace=wrap;html=1;fillColor=#DAE8FC;" vertex="1" parent="1">
          <mxGeometry x="-100" y="40" width="140" height="20" as="geometry" />
        </mxCell>
        <mxCell id="PPmTQ5JIbKEAMsSIk3v8-122" style="edgeStyle=orthogonalEdgeStyle;rounded=0;orthogonalLoop=1;jettySize=auto;html=1;entryX=0;entryY=0.5;entryDx=0;entryDy=0;startArrow=oval;startFill=1;endArrow=none;endFill=0;" edge="1" parent="1" source="PPmTQ5JIbKEAMsSIk3v8-43" target="PPmTQ5JIbKEAMsSIk3v8-18">
          <mxGeometry relative="1" as="geometry" />
        </mxCell>
        <mxCell id="PPmTQ5JIbKEAMsSIk3v8-34" value="RECORDS" style="rounded=0;whiteSpace=wrap;html=1;fillColor=#DAE8FC;" vertex="1" parent="1">
          <mxGeometry x="-280" y="480" width="140" height="20" as="geometry" />
        </mxCell>
        <mxCell id="PPmTQ5JIbKEAMsSIk3v8-128" value="CONTACT" style="rounded=0;whiteSpace=wrap;html=1;fillColor=#FFD966;" vertex="1" parent="1">
          <mxGeometry x="-460" y="10" width="140" height="20" as="geometry" />
        </mxCell>
        <mxCell id="PPmTQ5JIbKEAMsSIk3v8-132" value="CONTACT" style="rounded=0;whiteSpace=wrap;html=1;fillColor=#FFD966;" vertex="1" parent="1">
          <mxGeometry x="-280" y="160" width="140" height="20" as="geometry" />
        </mxCell>
        <mxCell id="PPmTQ5JIbKEAMsSIk3v8-133" value="FEES" style="rounded=0;whiteSpace=wrap;html=1;fillColor=#FFD966;" vertex="1" parent="1">
          <mxGeometry x="-280" y="220" width="140" height="20" as="geometry" />
        </mxCell>
        <mxCell id="PPmTQ5JIbKEAMsSIk3v8-135" value="POOL" style="rounded=0;whiteSpace=wrap;html=1;fillColor=#FFD966;" vertex="1" parent="1">
          <mxGeometry x="-280" y="280" width="140" height="20" as="geometry" />
        </mxCell>
        <mxCell id="PPmTQ5JIbKEAMsSIk3v8-145" value="AGEGROUP" style="rounded=0;whiteSpace=wrap;html=1;fillColor=#FFD966;" vertex="1" parent="1">
          <mxGeometry x="-280" y="510" width="140" height="20" as="geometry" />
        </mxCell>
        <mxCell id="PPmTQ5JIbKEAMsSIk3v8-147" value="MEETINFO" style="rounded=0;whiteSpace=wrap;html=1;fillColor=#FFD966;" vertex="1" parent="1">
          <mxGeometry x="-440" y="1460" width="140" height="20" as="geometry" />
        </mxCell>
        <mxCell id="PPmTQ5JIbKEAMsSIk3v8-148" value="ATHLETE" style="rounded=0;whiteSpace=wrap;html=1;fillColor=#FFD966;" vertex="1" parent="1">
          <mxGeometry x="-440" y="1430" width="140" height="20" as="geometry" />
        </mxCell>
        <mxCell id="PPmTQ5JIbKEAMsSIk3v8-155" value="POOL" style="rounded=0;whiteSpace=wrap;html=1;fillColor=#FFD966;" vertex="1" parent="1">
          <mxGeometry x="80" y="400" width="140" height="20" as="geometry" />
        </mxCell>
        <mxCell id="PPmTQ5JIbKEAMsSIk3v8-18" value="JUDGES" style="rounded=0;whiteSpace=wrap;html=1;fillColor=#DAE8FC;" vertex="1" parent="1">
          <mxGeometry x="80" y="340" width="140" height="20" as="geometry" />
        </mxCell>
        <mxCell id="PPmTQ5JIbKEAMsSIk3v8-157" value="" style="edgeStyle=orthogonalEdgeStyle;rounded=0;orthogonalLoop=1;jettySize=auto;html=1;entryX=0;entryY=0.5;entryDx=0;entryDy=0;startArrow=oval;startFill=1;endArrow=none;endFill=0;" edge="1" parent="1" source="PPmTQ5JIbKEAMsSIk3v8-43" target="PPmTQ5JIbKEAMsSIk3v8-18">
          <mxGeometry relative="1" as="geometry">
            <mxPoint x="40" y="350" as="sourcePoint" />
            <mxPoint x="730" y="580" as="targetPoint" />
          </mxGeometry>
        </mxCell>
        <mxCell id="PPmTQ5JIbKEAMsSIk3v8-158" value="AGEGROUP" style="rounded=0;whiteSpace=wrap;html=1;fillColor=#FFD966;" vertex="1" parent="1">
          <mxGeometry x="-280" y="70" width="140" height="20" as="geometry" />
        </mxCell>
        <mxCell id="PPmTQ5JIbKEAMsSIk3v8-160" value="FEES" style="rounded=0;whiteSpace=wrap;html=1;fillColor=#FFD966;" vertex="1" parent="1">
          <mxGeometry x="80" y="430" width="140" height="20" as="geometry" />
        </mxCell>
        <mxCell id="PPmTQ5JIbKEAMsSIk3v8-180" value="RELAY" style="rounded=0;whiteSpace=wrap;html=1;fillColor=#FFD966;" vertex="1" parent="1">
          <mxGeometry x="80" y="540" width="140" height="20" as="geometry" />
        </mxCell>
        <mxCell id="PPmTQ5JIbKEAMsSIk3v8-182" value="ATHLETE" style="rounded=0;whiteSpace=wrap;html=1;fillColor=#FFD966;" vertex="1" parent="1">
          <mxGeometry x="80" y="480" width="140" height="20" as="geometry" />
        </mxCell>
        <mxCell id="PPmTQ5JIbKEAMsSIk3v8-183" value="MEETINFO" style="rounded=0;whiteSpace=wrap;html=1;fillColor=#FFD966;" vertex="1" parent="1">
          <mxGeometry x="80" y="510" width="140" height="20" as="geometry" />
        </mxCell>
        <mxCell id="PPmTQ5JIbKEAMsSIk3v8-184" value="SPLITS" style="rounded=0;whiteSpace=wrap;html=1;fillColor=#FFD966;" vertex="1" parent="1">
          <mxGeometry x="80" y="570" width="140" height="20" as="geometry" />
        </mxCell>
        <mxCell id="PPmTQ5JIbKEAMsSIk3v8-185" value="SWIMSTYLE" style="rounded=0;whiteSpace=wrap;html=1;fillColor=#FFD966;" vertex="1" parent="1">
          <mxGeometry x="80" y="600" width="140" height="20" as="geometry" />
        </mxCell>
        <mxCell id="PPmTQ5JIbKEAMsSIk3v8-191" style="edgeStyle=orthogonalEdgeStyle;rounded=0;orthogonalLoop=1;jettySize=auto;html=1;entryX=0;entryY=0.5;entryDx=0;entryDy=0;startArrow=oval;startFill=1;endArrow=none;endFill=0;" edge="1" parent="1" source="PPmTQ5JIbKEAMsSIk3v8-195" target="PPmTQ5JIbKEAMsSIk3v8-200">
          <mxGeometry relative="1" as="geometry" />
        </mxCell>
        <mxCell id="PPmTQ5JIbKEAMsSIk3v8-192" style="edgeStyle=orthogonalEdgeStyle;rounded=0;orthogonalLoop=1;jettySize=auto;html=1;entryX=0;entryY=0.5;entryDx=0;entryDy=0;startArrow=oval;startFill=1;endArrow=none;endFill=0;" edge="1" parent="1" source="PPmTQ5JIbKEAMsSIk3v8-195" target="PPmTQ5JIbKEAMsSIk3v8-201">
          <mxGeometry relative="1" as="geometry" />
        </mxCell>
        <mxCell id="PPmTQ5JIbKEAMsSIk3v8-193" style="edgeStyle=orthogonalEdgeStyle;rounded=0;orthogonalLoop=1;jettySize=auto;html=1;entryX=0;entryY=0.5;entryDx=0;entryDy=0;startArrow=oval;startFill=1;endArrow=none;endFill=0;" edge="1" parent="1" source="PPmTQ5JIbKEAMsSIk3v8-195" target="PPmTQ5JIbKEAMsSIk3v8-198">
          <mxGeometry relative="1" as="geometry" />
        </mxCell>
        <mxCell id="PPmTQ5JIbKEAMsSIk3v8-194" style="edgeStyle=orthogonalEdgeStyle;rounded=0;orthogonalLoop=1;jettySize=auto;html=1;entryX=0;entryY=0.5;entryDx=0;entryDy=0;startArrow=oval;startFill=1;endArrow=none;endFill=0;" edge="1" parent="1" source="PPmTQ5JIbKEAMsSIk3v8-195" target="PPmTQ5JIbKEAMsSIk3v8-199">
          <mxGeometry relative="1" as="geometry" />
        </mxCell>
        <mxCell id="PPmTQ5JIbKEAMsSIk3v8-195" value="ATHLETE" style="rounded=0;whiteSpace=wrap;html=1;fillColor=#DAE8FC;" vertex="1" parent="1">
          <mxGeometry x="-620" y="880" width="140" height="20" as="geometry" />
        </mxCell>
        <mxCell id="PPmTQ5JIbKEAMsSIk3v8-196" value="ATHLETES" style="rounded=0;whiteSpace=wrap;html=1;fillColor=#DAE8FC;" vertex="1" parent="1">
          <mxGeometry x="-800" y="880" width="140" height="20" as="geometry" />
        </mxCell>
        <mxCell id="PPmTQ5JIbKEAMsSIk3v8-197" style="edgeStyle=orthogonalEdgeStyle;rounded=0;orthogonalLoop=1;jettySize=auto;html=1;endArrow=none;endFill=0;startArrow=oval;startFill=1;exitX=1;exitY=0.5;exitDx=0;exitDy=0;entryX=0;entryY=0.5;entryDx=0;entryDy=0;" edge="1" parent="1" source="PPmTQ5JIbKEAMsSIk3v8-196" target="PPmTQ5JIbKEAMsSIk3v8-195">
          <mxGeometry relative="1" as="geometry">
            <mxPoint x="-250" y="740" as="sourcePoint" />
            <mxPoint x="-220" y="740" as="targetPoint" />
          </mxGeometry>
        </mxCell>
        <mxCell id="PPmTQ5JIbKEAMsSIk3v8-198" value="CLUB" style="rounded=0;whiteSpace=wrap;html=1;fillColor=#FFD966;" vertex="1" parent="1">
          <mxGeometry x="-440" y="880" width="140" height="20" as="geometry" />
        </mxCell>
        <mxCell id="PPmTQ5JIbKEAMsSIk3v8-199" value="ENTRIES" style="rounded=0;whiteSpace=wrap;html=1;fillColor=#FFD966;" vertex="1" parent="1">
          <mxGeometry x="-440" y="910" width="140" height="20" as="geometry" />
        </mxCell>
        <mxCell id="PPmTQ5JIbKEAMsSIk3v8-200" value="HANDICAP" style="rounded=0;whiteSpace=wrap;html=1;fillColor=#DAE8FC;" vertex="1" parent="1">
          <mxGeometry x="-440" y="940" width="140" height="20" as="geometry" />
        </mxCell>
        <mxCell id="PPmTQ5JIbKEAMsSIk3v8-201" value="RESULTS" style="rounded=0;whiteSpace=wrap;html=1;fillColor=#FFD966;" vertex="1" parent="1">
          <mxGeometry x="-440" y="970" width="140" height="20" as="geometry" />
        </mxCell>
        <mxCell id="PPmTQ5JIbKEAMsSIk3v8-202" value="RELAYPOSITIONS" style="rounded=0;whiteSpace=wrap;html=1;fillColor=#FFD966;" vertex="1" parent="1">
          <mxGeometry x="-440" y="1510" width="140" height="20" as="geometry" />
        </mxCell>
        <mxCell id="PPmTQ5JIbKEAMsSIk3v8-204" value="RELAYPOSITIONS" style="rounded=0;whiteSpace=wrap;html=1;fillColor=#FFD966;" vertex="1" parent="1">
          <mxGeometry x="-440" y="1190" width="140" height="20" as="geometry" />
        </mxCell>
        <mxCell id="PPmTQ5JIbKEAMsSIk3v8-206" value="SWIMSTYLE" style="rounded=0;whiteSpace=wrap;html=1;fillColor=#DAE8FC;" vertex="1" parent="1">
          <mxGeometry x="440" y="430" width="140" height="20" as="geometry" />
        </mxCell>
        <mxCell id="PPmTQ5JIbKEAMsSIk3v8-208" style="edgeStyle=orthogonalEdgeStyle;rounded=0;orthogonalLoop=1;jettySize=auto;html=1;entryX=0;entryY=0.5;entryDx=0;entryDy=0;startArrow=oval;startFill=1;endArrow=none;endFill=0;" edge="1" parent="1" source="PPmTQ5JIbKEAMsSIk3v8-212" target="PPmTQ5JIbKEAMsSIk3v8-215">
          <mxGeometry relative="1" as="geometry" />
        </mxCell>
        <mxCell id="PPmTQ5JIbKEAMsSIk3v8-209" style="edgeStyle=orthogonalEdgeStyle;rounded=0;orthogonalLoop=1;jettySize=auto;html=1;entryX=0;entryY=0.5;entryDx=0;entryDy=0;startArrow=oval;startFill=1;endArrow=none;endFill=0;" edge="1" parent="1" source="PPmTQ5JIbKEAMsSIk3v8-212" target="PPmTQ5JIbKEAMsSIk3v8-216">
          <mxGeometry relative="1" as="geometry" />
        </mxCell>
        <mxCell id="PPmTQ5JIbKEAMsSIk3v8-210" style="edgeStyle=orthogonalEdgeStyle;rounded=0;orthogonalLoop=1;jettySize=auto;html=1;entryX=0;entryY=0.5;entryDx=0;entryDy=0;startArrow=oval;startFill=1;endArrow=none;endFill=0;" edge="1" parent="1" source="PPmTQ5JIbKEAMsSIk3v8-212" target="PPmTQ5JIbKEAMsSIk3v8-217">
          <mxGeometry relative="1" as="geometry" />
        </mxCell>
        <mxCell id="PPmTQ5JIbKEAMsSIk3v8-211" style="edgeStyle=orthogonalEdgeStyle;rounded=0;orthogonalLoop=1;jettySize=auto;html=1;entryX=0;entryY=0.5;entryDx=0;entryDy=0;startArrow=oval;startFill=1;endArrow=none;endFill=0;" edge="1" parent="1" source="PPmTQ5JIbKEAMsSIk3v8-212" target="PPmTQ5JIbKEAMsSIk3v8-218">
          <mxGeometry relative="1" as="geometry" />
        </mxCell>
        <mxCell id="PPmTQ5JIbKEAMsSIk3v8-212" value="RELAY" style="rounded=0;whiteSpace=wrap;html=1;fillColor=#DAE8FC;" vertex="1" parent="1">
          <mxGeometry x="-620" y="1290" width="140" height="20" as="geometry" />
        </mxCell>
        <mxCell id="PPmTQ5JIbKEAMsSIk3v8-213" value="RELAYS" style="rounded=0;whiteSpace=wrap;html=1;fillColor=#DAE8FC;" vertex="1" parent="1">
          <mxGeometry x="-800" y="1290" width="140" height="20" as="geometry" />
        </mxCell>
        <mxCell id="PPmTQ5JIbKEAMsSIk3v8-214" style="edgeStyle=orthogonalEdgeStyle;rounded=0;orthogonalLoop=1;jettySize=auto;html=1;entryX=0;entryY=0.5;entryDx=0;entryDy=0;endArrow=none;endFill=0;startArrow=oval;startFill=1;" edge="1" parent="1" source="PPmTQ5JIbKEAMsSIk3v8-213" target="PPmTQ5JIbKEAMsSIk3v8-212">
          <mxGeometry relative="1" as="geometry" />
        </mxCell>
        <mxCell id="PPmTQ5JIbKEAMsSIk3v8-215" value="CLUB" style="rounded=0;whiteSpace=wrap;html=1;fillColor=#FFD966;" vertex="1" parent="1">
          <mxGeometry x="-440" y="1290" width="140" height="20" as="geometry" />
        </mxCell>
        <mxCell id="PPmTQ5JIbKEAMsSIk3v8-216" value="ENTRIES" style="rounded=0;whiteSpace=wrap;html=1;fillColor=#FFD966;" vertex="1" parent="1">
          <mxGeometry x="-440" y="1320" width="140" height="20" as="geometry" />
        </mxCell>
        <mxCell id="PPmTQ5JIbKEAMsSIk3v8-217" value="RELAYPOSITIONS" style="rounded=0;whiteSpace=wrap;html=1;fillColor=#FFD966;" vertex="1" parent="1">
          <mxGeometry x="-440" y="1350" width="140" height="20" as="geometry" />
        </mxCell>
        <mxCell id="PPmTQ5JIbKEAMsSIk3v8-218" value="RESULTS" style="rounded=0;whiteSpace=wrap;html=1;fillColor=#FFD966;" vertex="1" parent="1">
          <mxGeometry x="-440" y="1380" width="140" height="20" as="geometry" />
        </mxCell>
        <mxCell id="PPmTQ5JIbKEAMsSIk3v8-230" value="CLUBS" style="rounded=0;whiteSpace=wrap;html=1;fillColor=#DAE8FC;" vertex="1" parent="1">
          <mxGeometry x="-800" y="1020" width="140" height="20" as="geometry" />
        </mxCell>
        <mxCell id="PPmTQ5JIbKEAMsSIk3v8-231" value="ATHLETES" style="rounded=0;whiteSpace=wrap;html=1;fillColor=#FFD966;" vertex="1" parent="1">
          <mxGeometry x="-440" y="1020" width="140" height="20" as="geometry" />
        </mxCell>
        <mxCell id="PPmTQ5JIbKEAMsSIk3v8-232" style="edgeStyle=orthogonalEdgeStyle;rounded=0;orthogonalLoop=1;jettySize=auto;html=1;entryX=0;entryY=0.5;entryDx=0;entryDy=0;startArrow=oval;startFill=1;endArrow=none;endFill=0;" edge="1" parent="1" source="PPmTQ5JIbKEAMsSIk3v8-233" target="PPmTQ5JIbKEAMsSIk3v8-231">
          <mxGeometry relative="1" as="geometry" />
        </mxCell>
        <mxCell id="PPmTQ5JIbKEAMsSIk3v8-233" value="CLUB" style="rounded=0;whiteSpace=wrap;html=1;fillColor=#DAE8FC;" vertex="1" parent="1">
          <mxGeometry x="-620" y="1020" width="140" height="20" as="geometry" />
        </mxCell>
        <mxCell id="PPmTQ5JIbKEAMsSIk3v8-234" value="CONTACT" style="rounded=0;whiteSpace=wrap;html=1;fillColor=#FFD966;" vertex="1" parent="1">
          <mxGeometry x="-440" y="1050" width="140" height="20" as="geometry" />
        </mxCell>
        <mxCell id="PPmTQ5JIbKEAMsSIk3v8-235" style="edgeStyle=orthogonalEdgeStyle;rounded=0;orthogonalLoop=1;jettySize=auto;html=1;entryX=0;entryY=0.5;entryDx=0;entryDy=0;startArrow=oval;startFill=1;endArrow=none;endFill=0;" edge="1" parent="1" source="PPmTQ5JIbKEAMsSIk3v8-236" target="PPmTQ5JIbKEAMsSIk3v8-244">
          <mxGeometry relative="1" as="geometry" />
        </mxCell>
        <mxCell id="PPmTQ5JIbKEAMsSIk3v8-236" value="OFFICIAL" style="rounded=0;whiteSpace=wrap;html=1;fillColor=#DAE8FC;" vertex="1" parent="1">
          <mxGeometry x="-260" y="1080" width="140" height="20" as="geometry" />
        </mxCell>
        <mxCell id="PPmTQ5JIbKEAMsSIk3v8-237" value="OFFICIALS" style="rounded=0;whiteSpace=wrap;html=1;fillColor=#DAE8FC;" vertex="1" parent="1">
          <mxGeometry x="-440" y="1080" width="140" height="20" as="geometry" />
        </mxCell>
        <mxCell id="PPmTQ5JIbKEAMsSIk3v8-238" value="RELAYS" style="rounded=0;whiteSpace=wrap;html=1;fillColor=#FFD966;" vertex="1" parent="1">
          <mxGeometry x="-440" y="1110" width="140" height="20" as="geometry" />
        </mxCell>
        <mxCell id="PPmTQ5JIbKEAMsSIk3v8-239" style="edgeStyle=orthogonalEdgeStyle;rounded=0;orthogonalLoop=1;jettySize=auto;html=1;endArrow=none;endFill=0;startArrow=oval;startFill=1;entryX=0;entryY=0.5;entryDx=0;entryDy=0;exitX=1;exitY=0.5;exitDx=0;exitDy=0;" edge="1" parent="1" source="PPmTQ5JIbKEAMsSIk3v8-230" target="PPmTQ5JIbKEAMsSIk3v8-233">
          <mxGeometry relative="1" as="geometry">
            <mxPoint x="-670" y="1060" as="sourcePoint" />
            <mxPoint x="-600" y="1150" as="targetPoint" />
          </mxGeometry>
        </mxCell>
        <mxCell id="PPmTQ5JIbKEAMsSIk3v8-240" style="edgeStyle=orthogonalEdgeStyle;rounded=0;orthogonalLoop=1;jettySize=auto;html=1;endArrow=none;endFill=0;startArrow=oval;startFill=1;exitX=1;exitY=0.5;exitDx=0;exitDy=0;entryX=0;entryY=0.5;entryDx=0;entryDy=0;" edge="1" parent="1" source="PPmTQ5JIbKEAMsSIk3v8-237" target="PPmTQ5JIbKEAMsSIk3v8-236">
          <mxGeometry relative="1" as="geometry">
            <mxPoint x="-300" y="1119" as="sourcePoint" />
            <mxPoint x="-290" y="1100" as="targetPoint" />
          </mxGeometry>
        </mxCell>
        <mxCell id="PPmTQ5JIbKEAMsSIk3v8-241" style="edgeStyle=orthogonalEdgeStyle;rounded=0;orthogonalLoop=1;jettySize=auto;html=1;endArrow=none;endFill=0;startArrow=oval;startFill=1;exitX=1;exitY=0.5;exitDx=0;exitDy=0;entryX=0;entryY=0.5;entryDx=0;entryDy=0;" edge="1" parent="1" source="PPmTQ5JIbKEAMsSIk3v8-233" target="PPmTQ5JIbKEAMsSIk3v8-234">
          <mxGeometry relative="1" as="geometry">
            <mxPoint x="-470" y="1010" as="sourcePoint" />
            <mxPoint x="-430" y="1010" as="targetPoint" />
          </mxGeometry>
        </mxCell>
        <mxCell id="PPmTQ5JIbKEAMsSIk3v8-242" style="edgeStyle=orthogonalEdgeStyle;rounded=0;orthogonalLoop=1;jettySize=auto;html=1;endArrow=none;endFill=0;startArrow=oval;startFill=1;exitX=1;exitY=0.5;exitDx=0;exitDy=0;entryX=0;entryY=0.5;entryDx=0;entryDy=0;" edge="1" parent="1" source="PPmTQ5JIbKEAMsSIk3v8-233" target="PPmTQ5JIbKEAMsSIk3v8-237">
          <mxGeometry relative="1" as="geometry">
            <mxPoint x="-470" y="1040" as="sourcePoint" />
            <mxPoint x="-430" y="1040" as="targetPoint" />
          </mxGeometry>
        </mxCell>
        <mxCell id="PPmTQ5JIbKEAMsSIk3v8-243" style="edgeStyle=orthogonalEdgeStyle;rounded=0;orthogonalLoop=1;jettySize=auto;html=1;endArrow=none;endFill=0;startArrow=oval;startFill=1;exitX=1;exitY=0.5;exitDx=0;exitDy=0;entryX=0;entryY=0.5;entryDx=0;entryDy=0;" edge="1" parent="1" source="PPmTQ5JIbKEAMsSIk3v8-233" target="PPmTQ5JIbKEAMsSIk3v8-238">
          <mxGeometry relative="1" as="geometry">
            <mxPoint x="-470" y="1040" as="sourcePoint" />
            <mxPoint x="-430" y="1070" as="targetPoint" />
          </mxGeometry>
        </mxCell>
        <mxCell id="PPmTQ5JIbKEAMsSIk3v8-244" value="CONTACT" style="rounded=0;whiteSpace=wrap;html=1;fillColor=#FFD966;" vertex="1" parent="1">
          <mxGeometry x="-80" y="1080" width="140" height="20" as="geometry" />
        </mxCell>
        <mxCell id="PPmTQ5JIbKEAMsSIk3v8-245" value="JUDGE" style="rounded=0;whiteSpace=wrap;html=1;fillColor=#DAE8FC;" vertex="1" parent="1">
          <mxGeometry x="-257" y="1640" width="140" height="20" as="geometry" />
        </mxCell>
        <mxCell id="PPmTQ5JIbKEAMsSIk3v8-246" style="edgeStyle=orthogonalEdgeStyle;curved=1;rounded=0;orthogonalLoop=1;jettySize=auto;html=1;entryX=0;entryY=0.5;entryDx=0;entryDy=0;startArrow=oval;startFill=1;endArrow=none;endFill=0;" edge="1" parent="1" source="PPmTQ5JIbKEAMsSIk3v8-258" target="PPmTQ5JIbKEAMsSIk3v8-245">
          <mxGeometry relative="1" as="geometry" />
        </mxCell>
        <mxCell id="PPmTQ5JIbKEAMsSIk3v8-247" value="EVENT" style="rounded=0;whiteSpace=wrap;html=1;fillColor=#DAE8FC;" vertex="1" parent="1">
          <mxGeometry x="-257" y="1670" width="140" height="20" as="geometry" />
        </mxCell>
        <mxCell id="PPmTQ5JIbKEAMsSIk3v8-248" value="EVENTS" style="rounded=0;whiteSpace=wrap;html=1;fillColor=#DAE8FC;" vertex="1" parent="1">
          <mxGeometry x="-440" y="1670" width="140" height="20" as="geometry" />
        </mxCell>
        <mxCell id="PPmTQ5JIbKEAMsSIk3v8-249" style="edgeStyle=orthogonalEdgeStyle;rounded=0;orthogonalLoop=1;jettySize=auto;html=1;entryX=0;entryY=0.5;entryDx=0;entryDy=0;startArrow=oval;startFill=1;endArrow=none;endFill=0;" edge="1" parent="1" source="PPmTQ5JIbKEAMsSIk3v8-252" target="PPmTQ5JIbKEAMsSIk3v8-248">
          <mxGeometry relative="1" as="geometry" />
        </mxCell>
        <mxCell id="PPmTQ5JIbKEAMsSIk3v8-250" style="edgeStyle=orthogonalEdgeStyle;rounded=0;orthogonalLoop=1;jettySize=auto;html=1;entryX=0;entryY=0.5;entryDx=0;entryDy=0;startArrow=oval;startFill=1;endArrow=none;endFill=0;" edge="1" parent="1" source="PPmTQ5JIbKEAMsSIk3v8-252" target="PPmTQ5JIbKEAMsSIk3v8-257">
          <mxGeometry relative="1" as="geometry" />
        </mxCell>
        <mxCell id="PPmTQ5JIbKEAMsSIk3v8-251" style="edgeStyle=orthogonalEdgeStyle;rounded=0;orthogonalLoop=1;jettySize=auto;html=1;entryX=0;entryY=0.5;entryDx=0;entryDy=0;startArrow=oval;startFill=1;endArrow=none;endFill=0;" edge="1" parent="1" source="PPmTQ5JIbKEAMsSIk3v8-252" target="PPmTQ5JIbKEAMsSIk3v8-260">
          <mxGeometry relative="1" as="geometry" />
        </mxCell>
        <mxCell id="PPmTQ5JIbKEAMsSIk3v8-252" value="SESSION" style="rounded=0;whiteSpace=wrap;html=1;fillColor=#DAE8FC;" vertex="1" parent="1">
          <mxGeometry x="-620" y="1640" width="140" height="20" as="geometry" />
        </mxCell>
        <mxCell id="PPmTQ5JIbKEAMsSIk3v8-253" value="SESSIONS" style="rounded=0;whiteSpace=wrap;html=1;fillColor=#DAE8FC;" vertex="1" parent="1">
          <mxGeometry x="-800" y="1640" width="140" height="20" as="geometry" />
        </mxCell>
        <mxCell id="PPmTQ5JIbKEAMsSIk3v8-254" style="edgeStyle=orthogonalEdgeStyle;rounded=0;orthogonalLoop=1;jettySize=auto;html=1;endArrow=none;endFill=0;startArrow=oval;startFill=1;exitX=1;exitY=0.5;exitDx=0;exitDy=0;entryX=0;entryY=0.5;entryDx=0;entryDy=0;" edge="1" parent="1" source="PPmTQ5JIbKEAMsSIk3v8-248" target="PPmTQ5JIbKEAMsSIk3v8-247">
          <mxGeometry relative="1" as="geometry">
            <mxPoint x="-287" y="1720" as="sourcePoint" />
            <mxPoint x="-257" y="1720" as="targetPoint" />
          </mxGeometry>
        </mxCell>
        <mxCell id="PPmTQ5JIbKEAMsSIk3v8-255" style="edgeStyle=orthogonalEdgeStyle;rounded=0;orthogonalLoop=1;jettySize=auto;html=1;entryX=0;entryY=0.5;entryDx=0;entryDy=0;endArrow=none;endFill=0;startArrow=oval;startFill=1;exitX=1;exitY=0.5;exitDx=0;exitDy=0;" edge="1" parent="1" source="PPmTQ5JIbKEAMsSIk3v8-253" target="PPmTQ5JIbKEAMsSIk3v8-252">
          <mxGeometry relative="1" as="geometry">
            <mxPoint x="-567" y="1855" as="sourcePoint" />
            <mxPoint x="-537" y="1855" as="targetPoint" />
          </mxGeometry>
        </mxCell>
        <mxCell id="PPmTQ5JIbKEAMsSIk3v8-256" style="edgeStyle=orthogonalEdgeStyle;rounded=0;orthogonalLoop=1;jettySize=auto;html=1;entryX=0;entryY=0.5;entryDx=0;entryDy=0;startArrow=oval;startFill=1;endArrow=none;endFill=0;" edge="1" parent="1" source="PPmTQ5JIbKEAMsSIk3v8-252" target="PPmTQ5JIbKEAMsSIk3v8-258">
          <mxGeometry relative="1" as="geometry" />
        </mxCell>
        <mxCell id="PPmTQ5JIbKEAMsSIk3v8-257" value="POOL" style="rounded=0;whiteSpace=wrap;html=1;fillColor=#FFD966;" vertex="1" parent="1">
          <mxGeometry x="-440" y="1700" width="140" height="20" as="geometry" />
        </mxCell>
        <mxCell id="PPmTQ5JIbKEAMsSIk3v8-258" value="JUDGES" style="rounded=0;whiteSpace=wrap;html=1;fillColor=#DAE8FC;" vertex="1" parent="1">
          <mxGeometry x="-440" y="1640" width="140" height="20" as="geometry" />
        </mxCell>
        <mxCell id="PPmTQ5JIbKEAMsSIk3v8-259" value="" style="edgeStyle=orthogonalEdgeStyle;rounded=0;orthogonalLoop=1;jettySize=auto;html=1;entryX=0;entryY=0.5;entryDx=0;entryDy=0;startArrow=oval;startFill=1;endArrow=none;endFill=0;" edge="1" parent="1" source="PPmTQ5JIbKEAMsSIk3v8-252" target="PPmTQ5JIbKEAMsSIk3v8-258">
          <mxGeometry relative="1" as="geometry">
            <mxPoint x="-480" y="1650" as="sourcePoint" />
            <mxPoint x="210" y="1880" as="targetPoint" />
          </mxGeometry>
        </mxCell>
        <mxCell id="PPmTQ5JIbKEAMsSIk3v8-260" value="FEES" style="rounded=0;whiteSpace=wrap;html=1;fillColor=#FFD966;" vertex="1" parent="1">
          <mxGeometry x="-440" y="1730" width="140" height="20" as="geometry" />
        </mxCell>
        <mxCell id="PPmTQ5JIbKEAMsSIk3v8-261" value="MEETINFO" style="rounded=0;whiteSpace=wrap;html=1;fillColor=#DAE8FC;" vertex="1" parent="1">
          <mxGeometry x="-800" y="1240" width="140" height="20" as="geometry" />
        </mxCell>
        <mxCell id="PPmTQ5JIbKEAMsSIk3v8-262" value="POOL" style="rounded=0;whiteSpace=wrap;html=1;fillColor=#FFD966;" vertex="1" parent="1">
          <mxGeometry x="-620" y="1240" width="140" height="20" as="geometry" />
        </mxCell>
        <mxCell id="PPmTQ5JIbKEAMsSIk3v8-263" style="edgeStyle=orthogonalEdgeStyle;rounded=0;orthogonalLoop=1;jettySize=auto;html=1;endArrow=none;endFill=0;startArrow=oval;startFill=1;exitX=1;exitY=0.5;exitDx=0;exitDy=0;entryX=0;entryY=0.5;entryDx=0;entryDy=0;" edge="1" parent="1" source="PPmTQ5JIbKEAMsSIk3v8-261" target="PPmTQ5JIbKEAMsSIk3v8-262">
          <mxGeometry relative="1" as="geometry">
            <mxPoint x="-1300" y="2090" as="sourcePoint" />
            <mxPoint x="-1260" y="2090" as="targetPoint" />
          </mxGeometry>
        </mxCell>
        <mxCell id="PPmTQ5JIbKEAMsSIk3v8-264" value="AGEGROUP" style="rounded=0;whiteSpace=wrap;html=1;fillColor=#DAE8FC;" vertex="1" parent="1">
          <mxGeometry x="-620" y="830" width="140" height="20" as="geometry" />
        </mxCell>
        <mxCell id="PPmTQ5JIbKEAMsSIk3v8-265" value="AGEGROUPS" style="rounded=0;whiteSpace=wrap;html=1;fillColor=#DAE8FC;" vertex="1" parent="1">
          <mxGeometry x="-800" y="830" width="140" height="20" as="geometry" />
        </mxCell>
        <mxCell id="PPmTQ5JIbKEAMsSIk3v8-267" value="RANKINGS" style="rounded=0;whiteSpace=wrap;html=1;fillColor=#FFD966;" vertex="1" parent="1">
          <mxGeometry x="-440" y="830" width="140" height="20" as="geometry" />
        </mxCell>
        <mxCell id="PPmTQ5JIbKEAMsSIk3v8-268" style="edgeStyle=orthogonalEdgeStyle;rounded=0;orthogonalLoop=1;jettySize=auto;html=1;endArrow=none;endFill=0;startArrow=oval;startFill=1;exitX=1;exitY=0.5;exitDx=0;exitDy=0;entryX=0;entryY=0.5;entryDx=0;entryDy=0;" edge="1" parent="1" source="PPmTQ5JIbKEAMsSIk3v8-265" target="PPmTQ5JIbKEAMsSIk3v8-264">
          <mxGeometry relative="1" as="geometry">
            <mxPoint x="-650" y="880" as="sourcePoint" />
            <mxPoint x="-620" y="880" as="targetPoint" />
          </mxGeometry>
        </mxCell>
        <mxCell id="PPmTQ5JIbKEAMsSIk3v8-269" style="edgeStyle=orthogonalEdgeStyle;rounded=0;orthogonalLoop=1;jettySize=auto;html=1;endArrow=none;endFill=0;startArrow=oval;startFill=1;exitX=1;exitY=0.5;exitDx=0;exitDy=0;entryX=0;entryY=0.5;entryDx=0;entryDy=0;" edge="1" parent="1" source="PPmTQ5JIbKEAMsSIk3v8-264" target="PPmTQ5JIbKEAMsSIk3v8-267">
          <mxGeometry relative="1" as="geometry">
            <mxPoint x="-650" y="850" as="sourcePoint" />
            <mxPoint x="-610" y="850" as="targetPoint" />
          </mxGeometry>
        </mxCell>
        <mxCell id="PPmTQ5JIbKEAMsSIk3v8-271" value="RANKING" style="rounded=0;whiteSpace=wrap;html=1;fillColor=#DAE8FC;" vertex="1" parent="1">
          <mxGeometry x="-620" y="1590" width="140" height="20" as="geometry" />
        </mxCell>
        <mxCell id="PPmTQ5JIbKEAMsSIk3v8-272" value="RANKINGS" style="rounded=0;whiteSpace=wrap;html=1;fillColor=#DAE8FC;" vertex="1" parent="1">
          <mxGeometry x="-800" y="1590" width="140" height="20" as="geometry" />
        </mxCell>
        <mxCell id="PPmTQ5JIbKEAMsSIk3v8-273" style="edgeStyle=orthogonalEdgeStyle;rounded=0;orthogonalLoop=1;jettySize=auto;html=1;endArrow=none;endFill=0;startArrow=oval;startFill=1;exitX=1;exitY=0.5;exitDx=0;exitDy=0;entryX=0;entryY=0.5;entryDx=0;entryDy=0;" edge="1" parent="1" source="PPmTQ5JIbKEAMsSIk3v8-272" target="PPmTQ5JIbKEAMsSIk3v8-271">
          <mxGeometry relative="1" as="geometry">
            <mxPoint x="-830" y="1610" as="sourcePoint" />
            <mxPoint x="-600" y="1610" as="targetPoint" />
          </mxGeometry>
        </mxCell>
        <mxCell id="PPmTQ5JIbKEAMsSIk3v8-3" value="AGEGROUPS" style="rounded=0;whiteSpace=wrap;html=1;fillColor=#FFD966;" vertex="1" parent="1">
          <mxGeometry x="440" y="370" width="140" height="20" as="geometry" />
        </mxCell>
        <mxCell id="PPmTQ5JIbKEAMsSIk3v8-274" value="" style="edgeStyle=orthogonalEdgeStyle;rounded=0;orthogonalLoop=1;jettySize=auto;html=1;endArrow=none;endFill=0;startArrow=oval;startFill=1;entryX=0;entryY=0.5;entryDx=0;entryDy=0;exitX=1;exitY=0.5;exitDx=0;exitDy=0;" edge="1" parent="1" source="PPmTQ5JIbKEAMsSIk3v8-21" target="PPmTQ5JIbKEAMsSIk3v8-3">
          <mxGeometry relative="1" as="geometry">
            <mxPoint x="403" y="380" as="sourcePoint" />
            <mxPoint x="620" y="540" as="targetPoint" />
          </mxGeometry>
        </mxCell>
      </root>
    </mxGraphModel>
  </diagram>
  <diagram id="Dtqj57MDv5bo1pP1_dTz" name="Page-1">
    <mxGraphModel dx="960" dy="515" grid="1" gridSize="10" guides="1" tooltips="1" connect="1" arrows="1" fold="1" page="1" pageScale="1" pageWidth="827" pageHeight="1169" math="0" shadow="0">
      <root>
        <mxCell id="0" />
        <mxCell id="1" parent="0" />
        <mxCell id="DwAmklAiNKgLwSRmx11Q-14" value="AGEDATE" style="shape=table;startSize=30;container=1;collapsible=1;childLayout=tableLayout;fixedRows=1;rowLines=0;fontStyle=1;align=center;resizeLast=1;" parent="1" vertex="1">
          <mxGeometry x="10" y="260" width="180" height="100" as="geometry" />
        </mxCell>
        <mxCell id="DwAmklAiNKgLwSRmx11Q-15" value="" style="shape=tableRow;horizontal=0;startSize=0;swimlaneHead=0;swimlaneBody=0;fillColor=none;collapsible=0;dropTarget=0;points=[[0,0.5],[1,0.5]];portConstraint=eastwest;top=0;left=0;right=0;bottom=1;" parent="DwAmklAiNKgLwSRmx11Q-14" vertex="1">
          <mxGeometry y="30" width="180" height="30" as="geometry" />
        </mxCell>
        <mxCell id="DwAmklAiNKgLwSRmx11Q-16" value="PK" style="shape=partialRectangle;connectable=0;fillColor=none;top=0;left=0;bottom=0;right=0;fontStyle=1;overflow=hidden;" parent="DwAmklAiNKgLwSRmx11Q-15" vertex="1">
          <mxGeometry width="30" height="30" as="geometry">
            <mxRectangle width="30" height="30" as="alternateBounds" />
          </mxGeometry>
        </mxCell>
        <mxCell id="DwAmklAiNKgLwSRmx11Q-17" value="type" style="shape=partialRectangle;connectable=0;fillColor=none;top=0;left=0;bottom=0;right=0;align=left;spacingLeft=6;fontStyle=5;overflow=hidden;" parent="DwAmklAiNKgLwSRmx11Q-15" vertex="1">
          <mxGeometry x="30" width="150" height="30" as="geometry">
            <mxRectangle width="150" height="30" as="alternateBounds" />
          </mxGeometry>
        </mxCell>
        <mxCell id="DwAmklAiNKgLwSRmx11Q-18" value="" style="shape=tableRow;horizontal=0;startSize=0;swimlaneHead=0;swimlaneBody=0;fillColor=none;collapsible=0;dropTarget=0;points=[[0,0.5],[1,0.5]];portConstraint=eastwest;top=0;left=0;right=0;bottom=0;" parent="DwAmklAiNKgLwSRmx11Q-14" vertex="1">
          <mxGeometry y="60" width="180" height="30" as="geometry" />
        </mxCell>
        <mxCell id="DwAmklAiNKgLwSRmx11Q-19" value="" style="shape=partialRectangle;connectable=0;fillColor=none;top=0;left=0;bottom=0;right=0;editable=1;overflow=hidden;" parent="DwAmklAiNKgLwSRmx11Q-18" vertex="1">
          <mxGeometry width="30" height="30" as="geometry">
            <mxRectangle width="30" height="30" as="alternateBounds" />
          </mxGeometry>
        </mxCell>
        <mxCell id="DwAmklAiNKgLwSRmx11Q-20" value="value" style="shape=partialRectangle;connectable=0;fillColor=none;top=0;left=0;bottom=0;right=0;align=left;spacingLeft=6;overflow=hidden;" parent="DwAmklAiNKgLwSRmx11Q-18" vertex="1">
          <mxGeometry x="30" width="150" height="30" as="geometry">
            <mxRectangle width="150" height="30" as="alternateBounds" />
          </mxGeometry>
        </mxCell>
        <mxCell id="DwAmklAiNKgLwSRmx11Q-40" value="Country" style="shape=table;startSize=30;container=1;collapsible=1;childLayout=tableLayout;fixedRows=1;rowLines=0;fontStyle=1;align=center;resizeLast=1;" parent="1" vertex="1">
          <mxGeometry x="360" y="230" width="180" height="100" as="geometry" />
        </mxCell>
        <mxCell id="DwAmklAiNKgLwSRmx11Q-41" value="" style="shape=tableRow;horizontal=0;startSize=0;swimlaneHead=0;swimlaneBody=0;fillColor=none;collapsible=0;dropTarget=0;points=[[0,0.5],[1,0.5]];portConstraint=eastwest;top=0;left=0;right=0;bottom=1;" parent="DwAmklAiNKgLwSRmx11Q-40" vertex="1">
          <mxGeometry y="30" width="180" height="30" as="geometry" />
        </mxCell>
        <mxCell id="DwAmklAiNKgLwSRmx11Q-42" value="PK" style="shape=partialRectangle;connectable=0;fillColor=none;top=0;left=0;bottom=0;right=0;fontStyle=1;overflow=hidden;" parent="DwAmklAiNKgLwSRmx11Q-41" vertex="1">
          <mxGeometry width="30" height="30" as="geometry">
            <mxRectangle width="30" height="30" as="alternateBounds" />
          </mxGeometry>
        </mxCell>
        <mxCell id="DwAmklAiNKgLwSRmx11Q-43" value="code" style="shape=partialRectangle;connectable=0;fillColor=none;top=0;left=0;bottom=0;right=0;align=left;spacingLeft=6;fontStyle=5;overflow=hidden;" parent="DwAmklAiNKgLwSRmx11Q-41" vertex="1">
          <mxGeometry x="30" width="150" height="30" as="geometry">
            <mxRectangle width="150" height="30" as="alternateBounds" />
          </mxGeometry>
        </mxCell>
        <mxCell id="DwAmklAiNKgLwSRmx11Q-44" value="" style="shape=tableRow;horizontal=0;startSize=0;swimlaneHead=0;swimlaneBody=0;fillColor=none;collapsible=0;dropTarget=0;points=[[0,0.5],[1,0.5]];portConstraint=eastwest;top=0;left=0;right=0;bottom=0;" parent="DwAmklAiNKgLwSRmx11Q-40" vertex="1">
          <mxGeometry y="60" width="180" height="30" as="geometry" />
        </mxCell>
        <mxCell id="DwAmklAiNKgLwSRmx11Q-45" value="" style="shape=partialRectangle;connectable=0;fillColor=none;top=0;left=0;bottom=0;right=0;editable=1;overflow=hidden;" parent="DwAmklAiNKgLwSRmx11Q-44" vertex="1">
          <mxGeometry width="30" height="30" as="geometry">
            <mxRectangle width="30" height="30" as="alternateBounds" />
          </mxGeometry>
        </mxCell>
        <mxCell id="DwAmklAiNKgLwSRmx11Q-46" value="name" style="shape=partialRectangle;connectable=0;fillColor=none;top=0;left=0;bottom=0;right=0;align=left;spacingLeft=6;overflow=hidden;" parent="DwAmklAiNKgLwSRmx11Q-44" vertex="1">
          <mxGeometry x="30" width="150" height="30" as="geometry">
            <mxRectangle width="150" height="30" as="alternateBounds" />
          </mxGeometry>
        </mxCell>
        <UserObject label="https://www.swimrankings.net/files/Lenex_Country.txt" link="https://www.swimrankings.net/files/Lenex_Country.txt" id="DwAmklAiNKgLwSRmx11Q-53">
          <mxCell style="text;whiteSpace=wrap;html=1;" parent="1" vertex="1">
            <mxGeometry x="360" y="200" width="310" height="30" as="geometry" />
          </mxCell>
        </UserObject>
        <UserObject label="https://www.swimrankings.net/files/Lenex_PointTable.txt" link="https://www.swimrankings.net/files/Lenex_PointTable.txt" id="DwAmklAiNKgLwSRmx11Q-54">
          <mxCell style="text;whiteSpace=wrap;html=1;" parent="1" vertex="1">
            <mxGeometry x="360" y="590" width="320" height="30" as="geometry" />
          </mxCell>
        </UserObject>
        <mxCell id="DwAmklAiNKgLwSRmx11Q-59" value="PointTable" style="shape=table;startSize=30;container=1;collapsible=1;childLayout=tableLayout;fixedRows=1;rowLines=0;fontStyle=1;align=center;resizeLast=1;" parent="1" vertex="1">
          <mxGeometry x="360" y="620" width="180" height="100" as="geometry" />
        </mxCell>
        <mxCell id="DwAmklAiNKgLwSRmx11Q-60" value="" style="shape=tableRow;horizontal=0;startSize=0;swimlaneHead=0;swimlaneBody=0;fillColor=none;collapsible=0;dropTarget=0;points=[[0,0.5],[1,0.5]];portConstraint=eastwest;top=0;left=0;right=0;bottom=1;" parent="DwAmklAiNKgLwSRmx11Q-59" vertex="1">
          <mxGeometry y="30" width="180" height="30" as="geometry" />
        </mxCell>
        <mxCell id="DwAmklAiNKgLwSRmx11Q-61" value="PK" style="shape=partialRectangle;connectable=0;fillColor=none;top=0;left=0;bottom=0;right=0;fontStyle=1;overflow=hidden;" parent="DwAmklAiNKgLwSRmx11Q-60" vertex="1">
          <mxGeometry width="30" height="30" as="geometry">
            <mxRectangle width="30" height="30" as="alternateBounds" />
          </mxGeometry>
        </mxCell>
        <mxCell id="DwAmklAiNKgLwSRmx11Q-62" value="PointId" style="shape=partialRectangle;connectable=0;fillColor=none;top=0;left=0;bottom=0;right=0;align=left;spacingLeft=6;fontStyle=5;overflow=hidden;" parent="DwAmklAiNKgLwSRmx11Q-60" vertex="1">
          <mxGeometry x="30" width="150" height="30" as="geometry">
            <mxRectangle width="150" height="30" as="alternateBounds" />
          </mxGeometry>
        </mxCell>
        <mxCell id="DwAmklAiNKgLwSRmx11Q-63" value="" style="shape=tableRow;horizontal=0;startSize=0;swimlaneHead=0;swimlaneBody=0;fillColor=none;collapsible=0;dropTarget=0;points=[[0,0.5],[1,0.5]];portConstraint=eastwest;top=0;left=0;right=0;bottom=0;" parent="DwAmklAiNKgLwSRmx11Q-59" vertex="1">
          <mxGeometry y="60" width="180" height="30" as="geometry" />
        </mxCell>
        <mxCell id="DwAmklAiNKgLwSRmx11Q-64" value="" style="shape=partialRectangle;connectable=0;fillColor=none;top=0;left=0;bottom=0;right=0;editable=1;overflow=hidden;" parent="DwAmklAiNKgLwSRmx11Q-63" vertex="1">
          <mxGeometry width="30" height="30" as="geometry">
            <mxRectangle width="30" height="30" as="alternateBounds" />
          </mxGeometry>
        </mxCell>
        <mxCell id="DwAmklAiNKgLwSRmx11Q-65" value="name" style="shape=partialRectangle;connectable=0;fillColor=none;top=0;left=0;bottom=0;right=0;align=left;spacingLeft=6;overflow=hidden;" parent="DwAmklAiNKgLwSRmx11Q-63" vertex="1">
          <mxGeometry x="30" width="150" height="30" as="geometry">
            <mxRectangle width="150" height="30" as="alternateBounds" />
          </mxGeometry>
        </mxCell>
        <mxCell id="DwAmklAiNKgLwSRmx11Q-72" value="Nation" style="shape=table;startSize=30;container=1;collapsible=1;childLayout=tableLayout;fixedRows=1;rowLines=0;fontStyle=1;align=center;resizeLast=1;" parent="1" vertex="1">
          <mxGeometry x="360" y="90" width="180" height="100" as="geometry" />
        </mxCell>
        <mxCell id="DwAmklAiNKgLwSRmx11Q-73" value="" style="shape=tableRow;horizontal=0;startSize=0;swimlaneHead=0;swimlaneBody=0;fillColor=none;collapsible=0;dropTarget=0;points=[[0,0.5],[1,0.5]];portConstraint=eastwest;top=0;left=0;right=0;bottom=1;" parent="DwAmklAiNKgLwSRmx11Q-72" vertex="1">
          <mxGeometry y="30" width="180" height="30" as="geometry" />
        </mxCell>
        <mxCell id="DwAmklAiNKgLwSRmx11Q-74" value="PK" style="shape=partialRectangle;connectable=0;fillColor=none;top=0;left=0;bottom=0;right=0;fontStyle=1;overflow=hidden;" parent="DwAmklAiNKgLwSRmx11Q-73" vertex="1">
          <mxGeometry width="30" height="30" as="geometry">
            <mxRectangle width="30" height="30" as="alternateBounds" />
          </mxGeometry>
        </mxCell>
        <mxCell id="DwAmklAiNKgLwSRmx11Q-75" value="code" style="shape=partialRectangle;connectable=0;fillColor=none;top=0;left=0;bottom=0;right=0;align=left;spacingLeft=6;fontStyle=5;overflow=hidden;" parent="DwAmklAiNKgLwSRmx11Q-73" vertex="1">
          <mxGeometry x="30" width="150" height="30" as="geometry">
            <mxRectangle width="150" height="30" as="alternateBounds" />
          </mxGeometry>
        </mxCell>
        <mxCell id="DwAmklAiNKgLwSRmx11Q-76" value="" style="shape=tableRow;horizontal=0;startSize=0;swimlaneHead=0;swimlaneBody=0;fillColor=none;collapsible=0;dropTarget=0;points=[[0,0.5],[1,0.5]];portConstraint=eastwest;top=0;left=0;right=0;bottom=0;" parent="DwAmklAiNKgLwSRmx11Q-72" vertex="1">
          <mxGeometry y="60" width="180" height="30" as="geometry" />
        </mxCell>
        <mxCell id="DwAmklAiNKgLwSRmx11Q-77" value="" style="shape=partialRectangle;connectable=0;fillColor=none;top=0;left=0;bottom=0;right=0;editable=1;overflow=hidden;" parent="DwAmklAiNKgLwSRmx11Q-76" vertex="1">
          <mxGeometry width="30" height="30" as="geometry">
            <mxRectangle width="30" height="30" as="alternateBounds" />
          </mxGeometry>
        </mxCell>
        <mxCell id="DwAmklAiNKgLwSRmx11Q-78" value="name" style="shape=partialRectangle;connectable=0;fillColor=none;top=0;left=0;bottom=0;right=0;align=left;spacingLeft=6;overflow=hidden;" parent="DwAmklAiNKgLwSRmx11Q-76" vertex="1">
          <mxGeometry x="30" width="150" height="30" as="geometry">
            <mxRectangle width="150" height="30" as="alternateBounds" />
          </mxGeometry>
        </mxCell>
        <UserObject label="https://www.swimrankings.net/files/Lenex_Nation.txt" link="https://www.swimrankings.net/files/Lenex_Nation.txt" id="DwAmklAiNKgLwSRmx11Q-79">
          <mxCell style="text;whiteSpace=wrap;html=1;" parent="1" vertex="1">
            <mxGeometry x="360" y="60" width="300" height="30" as="geometry" />
          </mxCell>
        </UserObject>
        <UserObject label="https://www.swimrankings.net/files/Lenex_Currency.txt" link="https://www.swimrankings.net/files/Lenex_Currency.txt" id="DwAmklAiNKgLwSRmx11Q-80">
          <mxCell style="text;whiteSpace=wrap;html=1;" parent="1" vertex="1">
            <mxGeometry x="360" y="340" width="310" height="30" as="geometry" />
          </mxCell>
        </UserObject>
        <mxCell id="DwAmklAiNKgLwSRmx11Q-81" value="Currency" style="shape=table;startSize=30;container=1;collapsible=1;childLayout=tableLayout;fixedRows=1;rowLines=0;fontStyle=1;align=center;resizeLast=1;" parent="1" vertex="1">
          <mxGeometry x="360" y="370" width="180" height="100" as="geometry" />
        </mxCell>
        <mxCell id="DwAmklAiNKgLwSRmx11Q-82" value="" style="shape=tableRow;horizontal=0;startSize=0;swimlaneHead=0;swimlaneBody=0;fillColor=none;collapsible=0;dropTarget=0;points=[[0,0.5],[1,0.5]];portConstraint=eastwest;top=0;left=0;right=0;bottom=1;" parent="DwAmklAiNKgLwSRmx11Q-81" vertex="1">
          <mxGeometry y="30" width="180" height="30" as="geometry" />
        </mxCell>
        <mxCell id="DwAmklAiNKgLwSRmx11Q-83" value="PK" style="shape=partialRectangle;connectable=0;fillColor=none;top=0;left=0;bottom=0;right=0;fontStyle=1;overflow=hidden;" parent="DwAmklAiNKgLwSRmx11Q-82" vertex="1">
          <mxGeometry width="30" height="30" as="geometry">
            <mxRectangle width="30" height="30" as="alternateBounds" />
          </mxGeometry>
        </mxCell>
        <mxCell id="DwAmklAiNKgLwSRmx11Q-84" value="code" style="shape=partialRectangle;connectable=0;fillColor=none;top=0;left=0;bottom=0;right=0;align=left;spacingLeft=6;fontStyle=5;overflow=hidden;" parent="DwAmklAiNKgLwSRmx11Q-82" vertex="1">
          <mxGeometry x="30" width="150" height="30" as="geometry">
            <mxRectangle width="150" height="30" as="alternateBounds" />
          </mxGeometry>
        </mxCell>
        <mxCell id="DwAmklAiNKgLwSRmx11Q-85" value="" style="shape=tableRow;horizontal=0;startSize=0;swimlaneHead=0;swimlaneBody=0;fillColor=none;collapsible=0;dropTarget=0;points=[[0,0.5],[1,0.5]];portConstraint=eastwest;top=0;left=0;right=0;bottom=0;" parent="DwAmklAiNKgLwSRmx11Q-81" vertex="1">
          <mxGeometry y="60" width="180" height="30" as="geometry" />
        </mxCell>
        <mxCell id="DwAmklAiNKgLwSRmx11Q-86" value="" style="shape=partialRectangle;connectable=0;fillColor=none;top=0;left=0;bottom=0;right=0;editable=1;overflow=hidden;" parent="DwAmklAiNKgLwSRmx11Q-85" vertex="1">
          <mxGeometry width="30" height="30" as="geometry">
            <mxRectangle width="30" height="30" as="alternateBounds" />
          </mxGeometry>
        </mxCell>
        <mxCell id="DwAmklAiNKgLwSRmx11Q-87" value="name" style="shape=partialRectangle;connectable=0;fillColor=none;top=0;left=0;bottom=0;right=0;align=left;spacingLeft=6;overflow=hidden;" parent="DwAmklAiNKgLwSRmx11Q-85" vertex="1">
          <mxGeometry x="30" width="150" height="30" as="geometry">
            <mxRectangle width="150" height="30" as="alternateBounds" />
          </mxGeometry>
        </mxCell>
        <mxCell id="DwAmklAiNKgLwSRmx11Q-88" value="Cource" style="shape=table;startSize=30;container=1;collapsible=1;childLayout=tableLayout;fixedRows=1;rowLines=0;fontStyle=1;align=center;resizeLast=1;" parent="1" vertex="1">
          <mxGeometry x="360" y="480" width="180" height="100" as="geometry" />
        </mxCell>
        <mxCell id="DwAmklAiNKgLwSRmx11Q-89" value="" style="shape=tableRow;horizontal=0;startSize=0;swimlaneHead=0;swimlaneBody=0;fillColor=none;collapsible=0;dropTarget=0;points=[[0,0.5],[1,0.5]];portConstraint=eastwest;top=0;left=0;right=0;bottom=1;" parent="DwAmklAiNKgLwSRmx11Q-88" vertex="1">
          <mxGeometry y="30" width="180" height="30" as="geometry" />
        </mxCell>
        <mxCell id="DwAmklAiNKgLwSRmx11Q-90" value="PK" style="shape=partialRectangle;connectable=0;fillColor=none;top=0;left=0;bottom=0;right=0;fontStyle=1;overflow=hidden;" parent="DwAmklAiNKgLwSRmx11Q-89" vertex="1">
          <mxGeometry width="30" height="30" as="geometry">
            <mxRectangle width="30" height="30" as="alternateBounds" />
          </mxGeometry>
        </mxCell>
        <mxCell id="DwAmklAiNKgLwSRmx11Q-91" value="code" style="shape=partialRectangle;connectable=0;fillColor=none;top=0;left=0;bottom=0;right=0;align=left;spacingLeft=6;fontStyle=5;overflow=hidden;" parent="DwAmklAiNKgLwSRmx11Q-89" vertex="1">
          <mxGeometry x="30" width="150" height="30" as="geometry">
            <mxRectangle width="150" height="30" as="alternateBounds" />
          </mxGeometry>
        </mxCell>
        <mxCell id="DwAmklAiNKgLwSRmx11Q-92" value="" style="shape=tableRow;horizontal=0;startSize=0;swimlaneHead=0;swimlaneBody=0;fillColor=none;collapsible=0;dropTarget=0;points=[[0,0.5],[1,0.5]];portConstraint=eastwest;top=0;left=0;right=0;bottom=0;" parent="DwAmklAiNKgLwSRmx11Q-88" vertex="1">
          <mxGeometry y="60" width="180" height="30" as="geometry" />
        </mxCell>
        <mxCell id="DwAmklAiNKgLwSRmx11Q-93" value="" style="shape=partialRectangle;connectable=0;fillColor=none;top=0;left=0;bottom=0;right=0;editable=1;overflow=hidden;" parent="DwAmklAiNKgLwSRmx11Q-92" vertex="1">
          <mxGeometry width="30" height="30" as="geometry">
            <mxRectangle width="30" height="30" as="alternateBounds" />
          </mxGeometry>
        </mxCell>
        <mxCell id="DwAmklAiNKgLwSRmx11Q-94" value="name" style="shape=partialRectangle;connectable=0;fillColor=none;top=0;left=0;bottom=0;right=0;align=left;spacingLeft=6;overflow=hidden;" parent="DwAmklAiNKgLwSRmx11Q-92" vertex="1">
          <mxGeometry x="30" width="150" height="30" as="geometry">
            <mxRectangle width="150" height="30" as="alternateBounds" />
          </mxGeometry>
        </mxCell>
        <UserObject label="https://wiki.swimrankings.net/images/6/62/Lenex_3.0_Technical_Documentation.pdf" link="https://wiki.swimrankings.net/images/6/62/Lenex_3.0_Technical_Documentation.pdf" id="DwAmklAiNKgLwSRmx11Q-95">
          <mxCell style="text;whiteSpace=wrap;html=1;fontStyle=1" parent="1" vertex="1">
            <mxGeometry x="10" y="10" width="470" height="30" as="geometry" />
          </mxCell>
        </UserObject>
      </root>
    </mxGraphModel>
  </diagram>
</mxfile>
